<?xml version="1.0" encoding="UTF-8"?>
<svg version="1.1" xmlns="http://www.w3.org/2000/svg" width="241" height="259">
<path d="M0 0 C4.7783228 0.46190454 9.46712372 0.55215203 14.203125 -0.26953125 C36.57574561 -3.85916814 61.80485213 3.42764674 80.2890625 16.2734375 C82.71420116 18.18684965 85.0337982 20.17653268 87.34375 22.2265625 C88.00246094 22.74347656 88.66117188 23.26039062 89.33984375 23.79296875 C98.77560575 31.36815796 105.74706693 41.51988095 111.40625 52.1015625 C111.77613037 52.79040527 112.14601074 53.47924805 112.52709961 54.18896484 C115.52507158 60.04405973 117.34375 65.56549883 117.34375 72.2265625 C101.83375 72.2265625 86.32375 72.2265625 70.34375 72.2265625 C68.8307852 69.20063289 67.31936168 66.16733372 66.03125 63.0390625 C62.07768545 53.78690629 56.98420753 45.7753266 50.34375 38.2265625 C49.34408203 37.08380859 49.34408203 37.08380859 48.32421875 35.91796875 C38.68606857 25.60032004 26.46638531 19.0586659 13.34375 14.2265625 C12.54453125 13.91332031 11.7453125 13.60007812 10.921875 13.27734375 C1.72624787 10.37434467 -7.73466855 15.55775215 -15.90625 19.5390625 C-21.72163384 22.56898041 -26.71653258 25.93585905 -31.65625 30.2265625 C-32.46578125 30.88140625 -33.2753125 31.53625 -34.109375 32.2109375 C-52.17479097 47.39475337 -59.40177325 68.44522528 -62.65625 91.2265625 C-14.47625 91.2265625 33.70375 91.2265625 83.34375 91.2265625 C83.34375 109.2265625 83.34375 109.2265625 81.34375 120.2265625 C93.55375 120.2265625 105.76375 120.2265625 118.34375 120.2265625 C116.0225379 132.99322903 116.0225379 132.99322903 112.65625 139.2890625 C112.30103271 139.97242676 111.94581543 140.65579102 111.57983398 141.35986328 C99.30452613 164.50977527 79.26380909 182.09950275 54.34375 190.2265625 C53.71194824 190.43684082 53.08014648 190.64711914 52.42919922 190.86376953 C38.96483578 195.15917014 22.10152416 196.80745022 8.34375 193.2265625 C4.64868178 193.09691098 1.86159183 193.05394856 -1.65625 194.2265625 C-21.2240372 195.63592528 -38.89242123 193.80568435 -56.65625 185.2265625 C-57.543125 184.80890625 -58.43 184.39125 -59.34375 183.9609375 C-80.38955949 173.3156734 -97.45114469 154.3642584 -105.65625 132.2265625 C-106.78022968 128.58614249 -107.77449793 124.93278867 -108.65625 121.2265625 C-107.65625 120.2265625 -107.65625 120.2265625 -105.75169373 120.10630798 C-104.91896439 120.10852859 -104.08623505 120.11074921 -103.22827148 120.11303711 C-102.28737167 120.11311264 -101.34647186 120.11318817 -100.37705994 120.11326599 C-99.35415359 120.11842728 -98.33124725 120.12358856 -97.27734375 120.12890625 C-96.23554459 120.1303212 -95.19374542 120.13173615 -94.12037659 120.13319397 C-90.77813906 120.1388117 -87.43596743 120.1513672 -84.09375 120.1640625 C-81.83398534 120.16907522 -79.57421963 120.17363852 -77.31445312 120.17773438 C-71.76169609 120.18878689 -66.20897775 120.20554226 -60.65625 120.2265625 C-60.38653381 120.83501007 -60.11681763 121.44345764 -59.83892822 122.07034302 C-59.4824823 122.87358002 -59.12603638 123.67681702 -58.75878906 124.50439453 C-58.40657288 125.2984671 -58.05435669 126.09253967 -57.69146729 126.91067505 C-47.45015933 149.8215334 -32.4338824 168.30270116 -8.65625 177.7265625 C-6.33800337 178.60098886 -4.00463823 179.4366501 -1.65625 180.2265625 C-0.50382812 180.64808594 0.64859375 181.06960937 1.8359375 181.50390625 C11.86186675 183.56938165 25.15928362 175.38564247 33.34375 170.2265625 C36.80571045 167.69757908 40.08476858 165.00931952 43.34375 162.2265625 C44.17261719 161.58847656 45.00148437 160.95039063 45.85546875 160.29296875 C56.93882468 151.08873753 64.10883315 137.66581246 68.71875 124.2265625 C68.95746826 123.54005615 69.19618652 122.8535498 69.44213867 122.14624023 C70.94473562 117.45585532 71.74796615 112.8046452 72.42041016 107.92578125 C72.59496735 106.66983154 72.76952454 105.41388184 72.94937134 104.11987305 C73.0795163 103.16508057 73.20966125 102.21028809 73.34375 101.2265625 C72.39638505 101.22748429 71.4490201 101.22840609 70.47294712 101.22935581 C47.45653355 101.25152288 24.44012136 101.26797279 1.42369938 101.27837467 C-9.70671403 101.28353821 -20.8371204 101.29058202 -31.9675293 101.30200195 C-41.66505216 101.31194701 -51.36256993 101.3184155 -61.06009775 101.32065099 C-66.19822829 101.3219584 -71.33634426 101.32504616 -76.47447014 101.33229256 C-81.30474446 101.33904997 -86.13499812 101.34118003 -90.96527672 101.33967018 C-92.74350853 101.33994664 -94.52174098 101.3419534 -96.29996872 101.34576797 C-98.71688636 101.35070088 -101.13372467 101.3495623 -103.55064392 101.34681702 C-104.26366557 101.34972986 -104.97668721 101.3526427 -105.71131557 101.35564381 C-110.54212879 101.34068371 -110.54212879 101.34068371 -111.65625 100.2265625 C-113.43320248 77.50207405 -105.44633701 54.15796124 -91.28125 36.4140625 C-77.87743823 20.91953485 -77.87743823 20.91953485 -72.65625 20.2265625 C-72.65625 19.5665625 -72.65625 18.9065625 -72.65625 18.2265625 C-70.70908925 16.6836459 -68.79892988 15.32126614 -66.71875 13.9765625 C-66.10064453 13.57687256 -65.48253906 13.17718262 -64.84570312 12.76538086 C-57.58002404 8.27844523 -49.76269463 5.75982645 -41.65625 3.2265625 C-40.64691406 2.86691406 -39.63757813 2.50726563 -38.59765625 2.13671875 C-26.26934544 -1.67801753 -12.6898196 -1.44202495 0 0 Z M28.34375 9.2265625 C28.8903125 9.48566406 29.436875 9.74476562 30 10.01171875 C46.80632522 18.72299732 60.64415168 32.66280358 70.38671875 48.72265625 C70.70987061 49.25439453 71.03302246 49.78613281 71.3659668 50.33398438 C72.34375 52.2265625 72.34375 52.2265625 73.19067383 54.80664062 C74.2800623 57.78851807 75.22313801 59.85042849 77.34375 62.2265625 C82.08062937 63.77338451 86.70233845 63.8071328 91.65625 63.8515625 C92.96916016 63.90183594 94.28207031 63.95210937 95.63476562 64.00390625 C98.87229541 64.12163461 102.10442601 64.19417878 105.34375 64.2265625 C98.29034553 42.42204773 81.16590442 27.3917699 61.34375 17.2265625 C50.71631276 12.23258053 40.04566869 9.8188062 28.34375 9.2265625 Z M-95.65625 129.2265625 C-91.24642905 139.14865963 -86.31895981 149.33847888 -78.65625 157.2265625 C-77.99625 157.2265625 -77.33625 157.2265625 -76.65625 157.2265625 C-76.32625 158.2165625 -75.99625 159.2065625 -75.65625 160.2265625 C-74.99625 160.2265625 -74.33625 160.2265625 -73.65625 160.2265625 C-73.65625 160.8865625 -73.65625 161.5465625 -73.65625 162.2265625 C-64.26040616 170.3669272 -54.20947867 175.81992118 -42.65625 180.2265625 C-41.83769531 180.56300781 -41.01914063 180.89945313 -40.17578125 181.24609375 C-33.3087528 183.86149108 -25.91216515 184.41397648 -18.65625 185.2265625 C-21.12510635 182.43351289 -23.81821324 180.96655547 -27.09375 179.2265625 C-34.26713601 175.1113954 -39.84171666 170.0330313 -45.65625 164.2265625 C-46.47222656 163.4221875 -47.28820312 162.6178125 -48.12890625 161.7890625 C-57.22119079 152.30688583 -62.253752 141.1120581 -67.65625 129.2265625 C-76.89625 129.2265625 -86.13625 129.2265625 -95.65625 129.2265625 Z " fill="#C7FE03" transform="translate(114.65625,36.7734375)"/>
<path d="M0 0 C4.7783228 0.46190454 9.46712372 0.55215203 14.203125 -0.26953125 C36.57574561 -3.85916814 61.80485213 3.42764674 80.2890625 16.2734375 C82.71420116 18.18684965 85.0337982 20.17653268 87.34375 22.2265625 C88.00246094 22.74347656 88.66117187 23.26039062 89.33984375 23.79296875 C98.77560575 31.36815796 105.74706693 41.51988095 111.40625 52.1015625 C111.77613037 52.79040527 112.14601074 53.47924805 112.52709961 54.18896484 C115.52507158 60.04405973 117.34375 65.56549883 117.34375 72.2265625 C101.83375 72.2265625 86.32375 72.2265625 70.34375 72.2265625 C68.8307852 69.20063289 67.31936168 66.16733372 66.03125 63.0390625 C62.07768545 53.78690629 56.98420753 45.7753266 50.34375 38.2265625 C49.34408203 37.08380859 49.34408203 37.08380859 48.32421875 35.91796875 C38.69352402 25.6083011 26.46457102 19.04183918 13.34375 14.2265625 C12.54453125 13.92492188 11.7453125 13.62328125 10.921875 13.3125 C4.16803826 11.26662975 -2.04717233 13.32658036 -8.65625 15.2265625 C-7.42587697 11.53544341 -5.3764937 9.9468062 -2.65625 7.2265625 C-2.65625 6.5665625 -2.65625 5.9065625 -2.65625 5.2265625 C-3.31625 4.8965625 -3.97625 4.5665625 -4.65625 4.2265625 C-4.65625 3.5665625 -4.65625 2.9065625 -4.65625 2.2265625 C-11.91625 1.8965625 -19.17625 1.5665625 -26.65625 1.2265625 C-26.65625 0.8965625 -26.65625 0.5665625 -26.65625 0.2265625 C-17.7876033 -1.44626607 -8.92689574 -1.01441997 0 0 Z M28.34375 9.2265625 C28.8903125 9.48566406 29.436875 9.74476562 30 10.01171875 C46.80632522 18.72299732 60.64415168 32.66280358 70.38671875 48.72265625 C70.70987061 49.25439453 71.03302246 49.78613281 71.3659668 50.33398438 C72.34375 52.2265625 72.34375 52.2265625 73.19067383 54.80664062 C74.2800623 57.78851807 75.22313801 59.85042849 77.34375 62.2265625 C82.08062937 63.77338451 86.70233845 63.8071328 91.65625 63.8515625 C92.96916016 63.90183594 94.28207031 63.95210937 95.63476562 64.00390625 C98.87229541 64.12163461 102.10442601 64.19417878 105.34375 64.2265625 C98.29034553 42.42204773 81.16590442 27.3917699 61.34375 17.2265625 C50.71631276 12.23258053 40.04566869 9.8188062 28.34375 9.2265625 Z " fill="#CCFA1D" transform="translate(114.65625,36.7734375)"/>
<path d="M0 0 C0.83272934 0.00222061 1.66545868 0.00444122 2.52342224 0.00672913 C3.46432205 0.00680466 4.40522186 0.00688019 5.37463379 0.00695801 C6.39754013 0.01211929 7.42044647 0.01728058 8.47434998 0.02259827 C9.51614914 0.02401321 10.5579483 0.02542816 11.63131714 0.02688599 C14.97355467 0.03250372 18.31572629 0.04505922 21.65794373 0.05775452 C23.91770839 0.06276723 26.17747409 0.06733053 28.4372406 0.07142639 C33.98999763 0.08247891 39.54271597 0.09923428 45.09544373 0.12025452 C45.36515991 0.72870209 45.6348761 1.33714966 45.9127655 1.96403503 C46.26921143 2.76727203 46.62565735 3.57050903 46.99290466 4.39808655 C47.34512085 5.19215912 47.69733704 5.98623169 48.06022644 6.80436707 C56.99772179 26.79846262 68.73040011 41.2031259 87.09544373 53.12025452 C86.10544373 54.11025452 86.10544373 54.11025452 85.09544373 55.12025452 C85.09544373 54.46025452 85.09544373 53.80025452 85.09544373 53.12025452 C84.33231873 52.97587952 83.56919373 52.83150452 82.78294373 52.68275452 C80.09544373 52.12025452 80.09544373 52.12025452 77.09544373 51.12025452 C77.44331081 53.09562197 77.44331081 53.09562197 78.09544373 55.12025452 C78.75544373 55.45025452 79.41544373 55.78025452 80.09544373 56.12025452 C79.60044373 57.11025452 79.60044373 57.11025452 79.09544373 58.12025452 C80.58044373 58.61525452 80.58044373 58.61525452 82.09544373 59.12025452 C82.09544373 59.78025452 82.09544373 60.44025452 82.09544373 61.12025452 C83.20919373 61.20275452 84.32294373 61.28525452 85.47044373 61.37025452 C89.09544373 62.12025452 89.09544373 62.12025452 90.53294373 64.18275452 C90.71856873 64.82212952 90.90419373 65.46150452 91.09544373 66.12025452 C87.63044373 67.11025452 87.63044373 67.11025452 84.09544373 68.12025452 C83.76544373 67.46025452 83.43544373 66.80025452 83.09544373 66.12025452 C81.11544373 66.45025452 79.13544373 66.78025452 77.09544373 67.12025452 C78.40502825 69.32857874 78.40502825 69.32857874 81.09544373 71.12025452 C84.74626312 71.66691364 88.35043006 71.54029061 92.03294373 71.43275452 C93.51697693 71.41825256 93.51697693 71.41825256 95.0309906 71.40345764 C100.41169524 71.33139314 100.41169524 71.33139314 105.72605896 70.57801819 C108.99673208 69.94612616 111.79424205 70.6477167 115.09544373 71.12025452 C120.10133123 71.25242316 125.1083879 71.14338564 130.11497498 71.08119202 C136.20654411 71.03510196 142.05551505 71.31324943 148.09544373 72.12025452 C148.09544373 71.46025452 148.09544373 70.80025452 148.09544373 70.12025452 C150.97755675 69.15955018 152.79394416 69.01443568 155.78294373 69.05775452 C156.59118591 69.06677795 157.3994281 69.07580139 158.23216248 69.08509827 C158.84704529 69.09669983 159.4619281 69.10830139 160.09544373 69.12025452 C147.46053637 75.89421417 127.79392672 76.71830186 114.09544373 73.12025452 C110.40037551 72.990603 107.61328555 72.94764057 104.09544373 74.12025452 C84.52765653 75.52961729 66.85927249 73.69937636 49.09544373 65.12025452 C48.20856873 64.70259827 47.32169373 64.28494202 46.40794373 63.85462952 C25.36213423 53.20936541 8.30054904 34.25795042 0.09544373 12.12025452 C-1.02853595 8.4798345 -2.02280421 4.82648069 -2.90455627 1.12025452 C-1.90455627 0.12025452 -1.90455627 0.12025452 0 0 Z M10.09544373 9.12025452 C14.50526467 19.04235165 19.43273392 29.23217089 27.09544373 37.12025452 C27.75544373 37.12025452 28.41544373 37.12025452 29.09544373 37.12025452 C29.42544373 38.11025452 29.75544373 39.10025452 30.09544373 40.12025452 C30.75544373 40.12025452 31.41544373 40.12025452 32.09544373 40.12025452 C32.09544373 40.78025452 32.09544373 41.44025452 32.09544373 42.12025452 C41.49128756 50.26061922 51.54221505 55.7136132 63.09544373 60.12025452 C63.91399841 60.45669983 64.7325531 60.79314514 65.57591248 61.13978577 C72.44294092 63.75518309 79.83952858 64.3076685 87.09544373 65.12025452 C84.62658737 62.32720491 81.93348049 60.86024748 78.65794373 59.12025452 C71.48455772 55.00508742 65.90997707 49.92672332 60.09544373 44.12025452 C59.27946716 43.31587952 58.4634906 42.51150452 57.62278748 41.68275452 C48.53050293 32.20057784 43.49794173 21.00575012 38.09544373 9.12025452 C28.85544373 9.12025452 19.61544373 9.12025452 10.09544373 9.12025452 Z " fill="#D0F928" transform="translate(8.904556274414063,156.87974548339844)"/>
<path d="M0 0 C0.33 0 0.66 0 1 0 C1.6875 2.8125 1.6875 2.8125 2 6 C0.75 7.5 0.75 7.5 -1 9 C-3.66632513 13.51850519 -4.64339492 17.72347304 -5.1875 22.875 C-5.26935547 23.56335938 -5.35121094 24.25171875 -5.43554688 24.9609375 C-5.63370738 26.63947357 -5.81827787 28.31960481 -6 30 C-6.66 30 -7.32 30 -8 30 C-8 35.61 -8 41.22 -8 47 C-0.38281491 47.02470151 7.2343469 47.04286075 14.8515625 47.05493164 C17.44336351 47.05996332 20.03516167 47.06678927 22.62695312 47.07543945 C26.35026755 47.08755591 30.07354447 47.09323995 33.796875 47.09765625 C34.95741394 47.10281754 36.11795288 47.10797882 37.31365967 47.11329651 C38.39447815 47.11337204 39.47529663 47.11344757 40.58886719 47.11352539 C41.53928894 47.115746 42.48971069 47.11796661 43.46893311 47.12025452 C45.91314988 47.09425166 45.91314988 47.09425166 47.86238098 46.5 C50.22377607 45.94765764 52.30849941 45.87702747 54.73297119 45.87974548 C55.6808551 45.87837082 56.62873901 45.87699615 57.60534668 45.87557983 C59.1546991 45.88097275 59.1546991 45.88097275 60.73535156 45.88647461 C61.82833557 45.88632858 62.92131958 45.88618256 64.04742432 45.8860321 C67.6618447 45.88672904 71.27621361 45.89451124 74.890625 45.90234375 C77.39597546 45.90420871 79.90132629 45.90563224 82.40667725 45.90663147 C88.32810211 45.91006013 94.24951044 45.91794249 100.17092681 45.92798096 C107.57488542 45.94025999 114.97884632 45.94562698 122.3828125 45.95117188 C135.58855106 45.9618984 148.79427436 45.97877543 162 46 C162 45.34 162 44.68 162 44 C162.81984375 44.2165625 163.6396875 44.433125 164.484375 44.65625 C165.56203125 44.9346875 166.6396875 45.213125 167.75 45.5 C168.81734375 45.7784375 169.8846875 46.056875 170.984375 46.34375 C174.13705302 47.14175989 174.13705302 47.14175989 178 47 C178 45.68 178 44.36 178 43 C176.9050204 43.00138269 176.9050204 43.00138269 175.78792 43.00279331 C158.04532319 43.02485469 140.30272912 43.04141456 122.56012154 43.05181217 C113.98001743 43.05697371 105.39992246 43.06401372 96.81982422 43.07543945 C89.34350163 43.08539061 81.86718565 43.09185446 74.39085662 43.09408849 C70.43032314 43.09539486 66.46980859 43.09847609 62.50928116 43.10573006 C58.78458713 43.11249707 55.05991992 43.11461556 51.33522034 43.11310768 C49.96538523 43.1133837 48.59554926 43.1153848 47.22571945 43.11920547 C45.36094556 43.12415325 43.4961574 43.12239508 41.63137817 43.12025452 C40.58606493 43.12117631 39.54075169 43.1220981 38.46376228 43.12304783 C36 43 36 43 34 42 C34.15597656 40.79601562 34.31195313 39.59203125 34.47265625 38.3515625 C34.66959135 36.7760817 34.86618844 35.20055862 35.0625 33.625 C35.16626953 32.8309375 35.27003906 32.036875 35.37695312 31.21875 C36.07961894 26.99830258 36.07961894 26.99830258 35 23 C35.4375 20.875 35.4375 20.875 36 19 C36.99 19 37.98 19 39 19 C39 17.68 39 16.36 39 15 C39.66 14.67 40.32 14.34 41 14 C41.65772428 10.97065509 41.65772428 10.97065509 42 8 C42.66 8 43.32 8 44 8 C44.33 6.35 44.66 4.7 45 3 C45.66 3.33 46.32 3.66 47 4 C46.38125 5.8253125 46.38125 5.8253125 45.75 7.6875 C45.16622624 9.45818819 44.58294175 11.22903772 44 13 C43.66355469 13.99 43.32710937 14.98 42.98046875 16 C42.63628906 17.051875 42.29210938 18.10375 41.9375 19.1875 C41.61652344 20.15042969 41.29554687 21.11335938 40.96484375 22.10546875 C39.51090298 27.97420942 38.85505626 34.01460615 38 40 C86.18 40 134.36 40 184 40 C184 58 184 58 182 69 C194.21 69 206.42 69 219 69 C216.67972324 81.7615222 216.67972324 81.7615222 213.3125 88.0625 C212.78619995 89.07993286 212.78619995 89.07993286 212.24926758 90.11791992 C208.639289 96.95048455 204.6317505 103.63884412 199 109 C199 107.68 199 106.36 199 105 C199.66 104.67 200.32 104.34 201 104 C201.65555119 101.47266765 201.65555119 101.47266765 202 99 C202.99 99 203.98 99 205 99 C204.67 97.02 204.34 95.04 204 93 C206.475 92.505 206.475 92.505 209 92 C208.67 91.01 208.34 90.02 208 89 C208.99 89 209.98 89 211 89 C210.67 87.02 210.34 85.04 210 83 C211.32 82.67 212.64 82.34 214 82 C214 79.03 214 76.06 214 73 C212.9805127 72.98018066 211.96102539 72.96036133 210.91064453 72.93994141 C207.13467352 72.86397192 203.35909227 72.77524191 199.58349609 72.68261719 C197.9481576 72.64429148 196.31273376 72.60944493 194.67724609 72.578125 C192.3287909 72.53255158 189.98092505 72.47454633 187.6328125 72.4140625 C186.89942657 72.40251129 186.16604065 72.39096008 185.41043091 72.37905884 C180.22774341 72.22774341 180.22774341 72.22774341 178 70 C177.67 69.01 177.34 68.02 177 67 C174.66110011 67.88237303 174.66110011 67.88237303 173.9375 70.9375 C173.628125 71.948125 173.31875 72.95875 173 74 C172.67 74.66 172.34 75.32 172 76 C171.34 76 170.68 76 170 76 C169.67 76.99 169.34 77.98 169 79 C167.15441012 75.30882025 169.704989 71.02788681 170.89453125 67.26171875 C171.94159121 63.62600169 172.51058015 59.97360531 173.0690918 56.23364258 C173.24474167 55.06553543 173.42039154 53.89742828 173.60136414 52.69392395 C173.73291397 51.80492905 173.86446381 50.91593414 174 50 C173.05263505 50.00092179 172.1052701 50.00184359 171.12919712 50.00279331 C148.11278355 50.02496038 125.09637136 50.04141029 102.07994938 50.05181217 C90.94953597 50.05697571 79.8191296 50.06401952 68.6887207 50.07543945 C58.99119784 50.08538451 49.29368007 50.091853 39.59615225 50.09408849 C34.45802171 50.0953959 29.31990574 50.09848366 24.18177986 50.10573006 C19.35150554 50.11248747 14.52125188 50.11461753 9.69097328 50.11310768 C7.91274147 50.11338414 6.13450902 50.1153909 4.35628128 50.11920547 C1.93936364 50.12413838 -0.47747467 50.1229998 -2.89439392 50.12025452 C-3.96392639 50.12462378 -3.96392639 50.12462378 -5.05506557 50.12908131 C-9.88587879 50.11412121 -9.88587879 50.11412121 -11 49 C-12.36754573 31.51119398 -7.91387041 15.5056647 0 0 Z " fill="#D2F725" transform="translate(14,88)"/>
<path d="M0 0 C1.64517685 0.01004837 3.29035964 0.01917094 4.93554688 0.02734375 C8.93634615 0.04921377 12.93685666 0.08364146 16.9375 0.125 C16.9375 1.775 16.9375 3.425 16.9375 5.125 C18.2575 5.125 19.5775 5.125 20.9375 5.125 C21.4221875 6.15238281 21.906875 7.17976562 22.40625 8.23828125 C31.28117923 26.72659828 42.74362496 39.96784598 59.9375 51.125 C58.9475 52.115 58.9475 52.115 57.9375 53.125 C57.9375 52.465 57.9375 51.805 57.9375 51.125 C57.174375 50.980625 56.41125 50.83625 55.625 50.6875 C52.9375 50.125 52.9375 50.125 49.9375 49.125 C50.28536708 51.10036745 50.28536708 51.10036745 50.9375 53.125 C51.5975 53.455 52.2575 53.785 52.9375 54.125 C52.4425 55.115 52.4425 55.115 51.9375 56.125 C53.4225 56.62 53.4225 56.62 54.9375 57.125 C54.9375 57.785 54.9375 58.445 54.9375 59.125 C36.3394588 52.40441982 22.00255611 33.22808548 13.875 16 C10.9375 9.72432405 10.9375 9.72432405 10.9375 6.125 C6.2750415 5.90816796 1.61233309 5.71126913 -3.05175781 5.53295898 C-4.63890171 5.46945374 -6.22583596 5.40046571 -7.8125 5.32592773 C-10.09081947 5.21984348 -12.3691609 5.13337833 -14.6484375 5.05078125 C-15.35994965 5.01342361 -16.07146179 4.97606598 -16.80453491 4.93757629 C-19.01741316 4.83411935 -19.01741316 4.83411935 -22.0625 5.125 C-23.0525 6.61 -23.0525 6.61 -24.0625 8.125 C-25.5625 6.8125 -25.5625 6.8125 -27.0625 5.125 C-27.0625 4.135 -27.0625 3.145 -27.0625 2.125 C-18.11805229 -0.50754892 -9.23156505 -0.09831668 0 0 Z " fill="#C8FB0B" transform="translate(36.0625,158.875)"/>
<path d="M0 0 C1.47906892 -0.02689216 2.95827483 -0.04634621 4.4375 -0.0625 C5.26121094 -0.07410156 6.08492187 -0.08570313 6.93359375 -0.09765625 C9 0 9 0 10 1 C11.82906235 1.20837419 13.66388134 1.36749659 15.5 1.5 C20.88888889 1.88888889 20.88888889 1.88888889 22 3 C23.51469448 3.23192865 25.03754562 3.41215238 26.5625 3.5625 C27.80193359 3.68818359 27.80193359 3.68818359 29.06640625 3.81640625 C29.70449219 3.87699219 30.34257812 3.93757813 31 4 C31 4.66 31 5.32 31 6 C31.66 5.9175 32.32 5.835 33 5.75 C37.21243694 6.10103641 40.34710677 7.96960773 44 10 C44 10.99 44 11.98 44 13 C42.25 14.125 42.25 14.125 40 15 C38.66220019 14.34234211 37.32942919 13.67441846 36 13 C33.7779727 12.62347305 33.7779727 12.62347305 31.5 12.5 C28.12837403 12.26906671 25.98718902 11.54289763 23 10 C17.34504485 8.41778457 11.86649602 7.77872803 6.0078125 8.02734375 C3.86277109 7.99813112 2.05476761 7.59431619 0 7 C0.66 8.98 1.32 10.96 2 13 C-2.07043497 13.18501977 -4.44052869 12.89096914 -8 11 C-9.99110401 10.61709538 -11.99100513 10.27395385 -14 10 C-14 9.01 -14 8.02 -14 7 C-13.34 7 -12.68 7 -12 7 C-12.33 6.01 -12.66 5.02 -13 4 C-9.09971775 1.39981184 -5.52565431 1.84914486 -1 2 C-0.67 1.34 -0.34 0.68 0 0 Z " fill="#C9FC09" transform="translate(136,37)"/>
<path d="M0 0 C1.7829449 1.32779171 3.51096051 2.72918584 5.21875 4.15234375 C4.55875 4.48234375 3.89875 4.81234375 3.21875 5.15234375 C1.73375 4.65734375 1.73375 4.65734375 0.21875 4.15234375 C0.21875 3.49234375 0.21875 2.83234375 0.21875 2.15234375 C-1.10125 2.15234375 -2.42125 2.15234375 -3.78125 2.15234375 C-4.11125 2.81234375 -4.44125 3.47234375 -4.78125 4.15234375 C-5.27625 4.64734375 -5.27625 4.64734375 -5.78125 5.15234375 C-3.80125 5.64734375 -3.80125 5.64734375 -1.78125 6.15234375 C-2.77125 6.15234375 -3.76125 6.15234375 -4.78125 6.15234375 C-4.78125 6.81234375 -4.78125 7.47234375 -4.78125 8.15234375 C-4.12125 8.15234375 -3.46125 8.15234375 -2.78125 8.15234375 C-2.28625 9.14234375 -2.28625 9.14234375 -1.78125 10.15234375 C-0.853125 10.39984375 0.075 10.64734375 1.03125 10.90234375 C5.09929996 12.49765746 6.25887237 14.31098359 8.21875 18.15234375 C7.88875 19.14234375 7.55875 20.13234375 7.21875 21.15234375 C6.6 20.49234375 5.98125 19.83234375 5.34375 19.15234375 C-1.260048 12.65800096 -8.3106247 7.62293105 -16.46875 3.27734375 C-17.1812793 2.89610352 -17.89380859 2.51486328 -18.62792969 2.12207031 C-22.94351334 -0.10888399 -27.06615944 -1.67351836 -31.78125 -2.84765625 C-31.78125 -3.17765625 -31.78125 -3.50765625 -31.78125 -3.84765625 C-26.55537654 -4.05259246 -22.63449255 -3.98879267 -17.78125 -1.84765625 C-16.29625 -2.34265625 -16.29625 -2.34265625 -14.78125 -2.84765625 C-14.78125 -3.83765625 -14.78125 -4.82765625 -14.78125 -5.84765625 C-15.34328125 -5.98042969 -15.9053125 -6.11320312 -16.484375 -6.25 C-18.87491153 -6.87202736 -21.19160775 -7.61880666 -23.53125 -8.41015625 C-24.33046875 -8.67957031 -25.1296875 -8.94898438 -25.953125 -9.2265625 C-26.55640625 -9.43152344 -27.1596875 -9.63648438 -27.78125 -9.84765625 C-27.78125 -10.50765625 -27.78125 -11.16765625 -27.78125 -11.84765625 C-28.73837891 -11.83025391 -28.73837891 -11.83025391 -29.71484375 -11.8125 C-30.54113281 -11.80347656 -31.36742187 -11.79445313 -32.21875 -11.78515625 C-33.45431641 -11.76775391 -33.45431641 -11.76775391 -34.71484375 -11.75 C-36.78125 -11.84765625 -36.78125 -11.84765625 -37.78125 -12.84765625 C-39.61031235 -13.05603044 -41.44513134 -13.21515284 -43.28125 -13.34765625 C-48.67013889 -13.73654514 -48.67013889 -13.73654514 -49.78125 -14.84765625 C-51.29594448 -15.0795849 -52.81879562 -15.25980863 -54.34375 -15.41015625 C-55.17003906 -15.49394531 -55.99632812 -15.57773437 -56.84765625 -15.6640625 C-57.48574219 -15.72464844 -58.12382812 -15.78523438 -58.78125 -15.84765625 C-59.11125 -14.85765625 -59.44125 -13.86765625 -59.78125 -12.84765625 C-66.71125 -13.17765625 -73.64125 -13.50765625 -80.78125 -13.84765625 C-80.78125 -14.50765625 -80.78125 -15.16765625 -80.78125 -15.84765625 C-79.98460938 -15.83605469 -79.18796875 -15.82445312 -78.3671875 -15.8125 C-76.77777344 -15.79896484 -76.77777344 -15.79896484 -75.15625 -15.78515625 C-73.59003906 -15.76775391 -73.59003906 -15.76775391 -71.9921875 -15.75 C-45.5218567 -16.55505872 -22.76099649 -15.12071817 0 0 Z " fill="#CAFB0E" transform="translate(194.78125,52.84765625)"/>
<path d="M0 0 C1.64517685 0.01004837 3.29035964 0.01917094 4.93554688 0.02734375 C8.93634615 0.04921377 12.93685666 0.08364146 16.9375 0.125 C16.9375 1.775 16.9375 3.425 16.9375 5.125 C17.9275 5.125 18.9175 5.125 19.9375 5.125 C20.27480842 6.56157245 20.60719591 7.99930093 20.9375 9.4375 C21.123125 10.23800781 21.30875 11.03851563 21.5 11.86328125 C22.11832343 15.05979254 21.97348162 17.01705515 20.9375 20.125 C18.1875 19.6875 18.1875 19.6875 14.9375 18.125 C12.5355187 14.34005978 10.9375 10.62526073 10.9375 6.125 C6.2750415 5.90816796 1.61233309 5.71126913 -3.05175781 5.53295898 C-4.63890171 5.46945374 -6.22583596 5.40046571 -7.8125 5.32592773 C-10.09081947 5.21984348 -12.3691609 5.13337833 -14.6484375 5.05078125 C-15.35994965 5.01342361 -16.07146179 4.97606598 -16.80453491 4.93757629 C-19.01741316 4.83411935 -19.01741316 4.83411935 -22.0625 5.125 C-23.0525 6.61 -23.0525 6.61 -24.0625 8.125 C-25.5625 6.8125 -25.5625 6.8125 -27.0625 5.125 C-27.0625 4.135 -27.0625 3.145 -27.0625 2.125 C-18.11805229 -0.50754892 -9.23156505 -0.09831668 0 0 Z " fill="#C8FC0C" transform="translate(36.0625,158.875)"/>
<path d="M0 0 C0.33 0 0.66 0 1 0 C1.6875 2.8125 1.6875 2.8125 2 6 C0.75 7.5 0.75 7.5 -1 9 C-3.66632513 13.51850519 -4.64339492 17.72347304 -5.1875 22.875 C-5.26935547 23.56335938 -5.35121094 24.25171875 -5.43554688 24.9609375 C-5.63370738 26.63947357 -5.81827787 28.31960481 -6 30 C-6.66 30 -7.32 30 -8 30 C-8.33 36.27 -8.66 42.54 -9 49 C51.39 49 111.78 49 174 49 C174 49.33 174 49.66 174 50 C150.02665225 50.02332624 126.05330618 50.04097782 102.07994938 50.05181217 C90.94953597 50.05697571 79.8191296 50.06401952 68.6887207 50.07543945 C58.99119784 50.08538451 49.29368007 50.091853 39.59615225 50.09408849 C34.45802171 50.0953959 29.31990574 50.09848366 24.18177986 50.10573006 C19.35150554 50.11248747 14.52125188 50.11461753 9.69097328 50.11310768 C7.91274147 50.11338414 6.13450902 50.1153909 4.35628128 50.11920547 C1.93936364 50.12413838 -0.47747467 50.1229998 -2.89439392 50.12025452 C-3.96392639 50.12462378 -3.96392639 50.12462378 -5.05506557 50.12908131 C-9.88587879 50.11412121 -9.88587879 50.11412121 -11 49 C-12.36754573 31.51119398 -7.91387041 15.5056647 0 0 Z " fill="#DEF855" transform="translate(14,88)"/>
<path d="M0 0 C6.656827 -0.07588693 13.31354303 -0.12853061 19.97070312 -0.16479492 C22.23669605 -0.17990804 24.5026596 -0.20039913 26.76855469 -0.22631836 C30.02025589 -0.26259062 33.27157136 -0.2797009 36.5234375 -0.29296875 C38.05005508 -0.31619453 38.05005508 -0.31619453 39.60751343 -0.33988953 C40.54833771 -0.34011612 41.48916199 -0.34034271 42.45849609 -0.34057617 C43.28900482 -0.34723801 44.11951355 -0.35389984 44.97518921 -0.36076355 C45.64337677 -0.24171158 46.31156433 -0.12265961 47 0 C49 3 49 3 49 7 C48.01 7 47.02 7 46 7 C46 5.35 46 3.7 46 2 C41.10685939 2.11856383 36.21390882 2.24283286 31.32104492 2.37231445 C29.65767319 2.41553784 27.99426068 2.45722146 26.33081055 2.49731445 C23.93525932 2.55532332 21.53991092 2.61892829 19.14453125 2.68359375 C18.4047554 2.70030624 17.66497955 2.71701874 16.90278625 2.73423767 C10.23813248 2.9074419 10.23813248 2.9074419 4 5 C3.34 4.67 2.68 4.34 2 4 C2.99 5.65 3.98 7.3 5 9 C5.33 8.01 5.66 7.02 6 6 C10.54189058 6.13933004 15.08344674 6.28760637 19.625 6.4375 C21.55279297 6.49647461 21.55279297 6.49647461 23.51953125 6.55664062 C25.38544922 6.61948242 25.38544922 6.61948242 27.2890625 6.68359375 C29.00150146 6.73858032 29.00150146 6.73858032 30.74853516 6.79467773 C33.8933928 6.99326801 36.9041491 7.4238847 40 8 C40 8.33 40 8.66 40 9 C36.04900072 9.0246985 32.09803126 9.04285923 28.14697266 9.05493164 C26.14093449 9.06244036 24.13491798 9.0751447 22.12890625 9.08789062 C20.24365234 9.09272461 20.24365234 9.09272461 18.3203125 9.09765625 C16.57645264 9.10551147 16.57645264 9.10551147 14.79736328 9.11352539 C12 9 12 9 10 8 C10 9.32 10 10.64 10 12 C9.38125 12.268125 8.7625 12.53625 8.125 12.8125 C5.7004767 13.95556848 5.7004767 13.95556848 4 17 C3.13670227 14.54453034 2.28410564 12.08621957 1.4375 9.625 C1.19064453 8.92632812 0.94378906 8.22765625 0.68945312 7.5078125 C0.06908951 5.69040925 -0.47106524 3.84608603 -1 2 C-0.67 1.34 -0.34 0.68 0 0 Z " fill="#CEF52B" transform="translate(7,157)"/>
<path d="M0 0 C2.98287075 2.55674635 4.2621947 5.52438941 6 9 C6.9793879 10.02019573 7.97895449 11.02149805 9 12 C10.03357147 13.64605826 11.04060332 15.30963442 12 17 C12.99 16.67 13.98 16.34 15 16 C15 16.99 15 17.98 15 19 C16.98 19.33 18.96 19.66 21 20 C20.34 20.99 19.68 21.98 19 23 C18.34 23 17.68 23 17 23 C17 23.66 17 24.32 17 25 C13.37 25 9.74 25 6 25 C5.68546875 23.81921875 5.3709375 22.6384375 5.046875 21.421875 C4.6152826 19.86438939 4.18295204 18.3071082 3.75 16.75 C3.54503906 15.97269531 3.34007812 15.19539063 3.12890625 14.39453125 C1.84367337 9.8377965 0.67958363 7.1763927 -3 4 C-3 3.34 -3 2.68 -3 2 C-2.01 2 -1.02 2 0 2 C0 1.34 0 0.68 0 0 Z " fill="#C8FC09" transform="translate(179,82)"/>
<path d="M0 0 C2.97 0.495 2.97 0.495 6 1 C6 1.66 6 2.32 6 3 C6.66 3 7.32 3 8 3 C8.33 3.99 8.66 4.98 9 6 C9.7425 6.0825 10.485 6.165 11.25 6.25 C14.64296341 7.17535366 15.88475622 8.20485643 18 11 C18.75 14.25 18.75 14.25 19 17 C19.99 17.33 20.98 17.66 22 18 C22.33 19.65 22.66 21.3 23 23 C21.02 23.99 21.02 23.99 19 25 C17.4375 23.875 17.4375 23.875 16 22 C16.3125 18.8125 16.3125 18.8125 17 16 C16.34 16 15.68 16 15 16 C14.67 15.34 14.34 14.68 14 14 C13.01 14.66 12.02 15.32 11 16 C9 14 7 12 5 10 C4.319375 9.608125 3.63875 9.21625 2.9375 8.8125 C0.13936608 6.19489085 0.27996415 3.709525 0 0 Z " fill="#C9FB0D" transform="translate(156,58)"/>
<path d="M0 0 C3.3114019 0.57093136 4.75054423 1.54604826 7 4 C7.66 4.33 8.32 4.66 9 5 C9 5.66 9 6.32 9 7 C11.7027544 7.69499399 13.61999501 8.08000105 16.375 7.5 C22.63808674 6.3070311 27.61229496 8.53434538 33.0625 11.4375 C37.32369692 13.69287384 41.38101086 15.60094545 46 17 C42.95161559 17.92565097 40.53510031 18.04155806 37.375 17.6875 C36.59898438 17.60886719 35.82296875 17.53023437 35.0234375 17.44921875 C33 17 33 17 31 15 C30.34 14.67 29.68 14.34 29 14 C29 13.34 29 12.68 29 12 C28.0925 12.020625 27.185 12.04125 26.25 12.0625 C23.57327412 12.0110245 21.53011948 11.7784983 19 11 C19 11.66 19 12.32 19 13 C19.78375 13.268125 20.5675 13.53625 21.375 13.8125 C24 15 24 15 26 18 C27.32 18 28.64 18 30 18 C30 18.99 30 19.98 30 21 C30.99 21 31.98 21 33 21 C33 21.66 33 22.32 33 23 C21.00424497 19.30763947 7.11423708 10.67135562 0 0 Z " fill="#CEF91C" transform="translate(29,200)"/>
<path d="M0 0 C2.54462396 2.54462396 3.59009091 5.17849535 5.125 8.4375 C10.61285175 19.67583537 17.91865031 28.42110203 27 37 C23.3188986 37 22.28324628 35.72036238 19.6171875 33.359375 C17.81816785 31.78358885 17.81816785 31.78358885 14.8125 30 C11.80313031 27.86000378 10.47618798 26.36242819 9 23 C8.8125 20.1875 8.8125 20.1875 9 18 C6.525 17.01 6.525 17.01 4 16 C4 16.99 4 17.98 4 19 C3.34 19 2.68 19 2 19 C2.34786708 20.97536745 2.34786708 20.97536745 3 23 C3.66 23.33 4.32 23.66 5 24 C5 24.99 5 25.98 5 27 C5.66 27 6.32 27 7 27 C6.67 27.99 6.34 28.98 6 30 C-4 17.67123288 -4 17.67123288 -4 13 C-2.68 13.33 -1.36 13.66 0 14 C1.11452881 10.65641358 1.08634115 9.50725427 0.5 6.0625 C0 3 0 3 0 0 Z " fill="#CFF82A" transform="translate(56,164)"/>
<path d="M0 0 C2.475 0.495 2.475 0.495 5 1 C5 2.32 5 3.64 5 5 C6.98 4.34 8.96 3.68 11 3 C11 3.99 11 4.98 11 6 C10.67 6.33 10.34 6.66 10 7 C10 7.66 10 8.32 10 9 C10.78375 9.28875 11.5675 9.5775 12.375 9.875 C15 11 15 11 17 13 C17.99 11.35 18.98 9.7 20 8 C23.10742423 9.46818668 25.90471739 11.20025 28.75 13.125 C29.54921875 13.66382813 30.3484375 14.20265625 31.171875 14.7578125 C32.07679687 15.37269531 32.07679687 15.37269531 33 16 C32.34 16.66 31.68 17.32 31 18 C31 17.34 31 16.68 31 16 C29.8553125 15.7834375 29.8553125 15.7834375 28.6875 15.5625 C26 15 26 15 23 14 C23.34786708 15.97536745 23.34786708 15.97536745 24 18 C24.66 18.33 25.32 18.66 26 19 C25.67 19.66 25.34 20.32 25 21 C25.99 21.33 26.98 21.66 28 22 C28 22.66 28 23.32 28 24 C19.02806011 20.75790365 11.98661596 14.25621164 5.3125 7.625 C4.78325928 7.10115723 4.25401855 6.57731445 3.70874023 6.03759766 C0 2.25804468 0 2.25804468 0 0 Z " fill="#CDF925" transform="translate(63,194)"/>
<path d="M0 0 C1.21236328 0.01353516 1.21236328 0.01353516 2.44921875 0.02734375 C3.37154297 0.04474609 3.37154297 0.04474609 4.3125 0.0625 C-8.32240735 6.83645965 -27.98901701 7.66054734 -41.6875 4.0625 C-45.38256822 3.93284848 -48.16965817 3.88988606 -51.6875 5.0625 C-56.01706721 5.2972023 -60.35224879 5.24767422 -64.6875 5.25 C-65.88890625 5.26224609 -67.0903125 5.27449219 -68.328125 5.28710938 C-69.47796875 5.28904297 -70.6278125 5.29097656 -71.8125 5.29296875 C-73.39417969 5.29913208 -73.39417969 5.29913208 -75.0078125 5.30541992 C-77.6875 5.0625 -77.6875 5.0625 -80.6875 3.0625 C-79.86548096 3.03744385 -79.04346191 3.0123877 -78.1965332 2.98657227 C-74.46420626 2.87037345 -70.73211683 2.74775495 -67 2.625 C-65.70642578 2.58568359 -64.41285156 2.54636719 -63.08007812 2.50585938 C-61.83291016 2.46396484 -60.58574219 2.42207031 -59.30078125 2.37890625 C-57.58048706 2.32391968 -57.58048706 2.32391968 -55.82543945 2.26782227 C-52.73966667 2.13559271 -52.73966667 2.13559271 -49.96606445 1.51538086 C-46.74389982 0.87495277 -43.94097547 1.59679377 -40.6875 2.0625 C-35.68161249 2.19466865 -30.67455582 2.08563113 -25.66796875 2.0234375 C-19.57639962 1.97734744 -13.72742867 2.25549492 -7.6875 3.0625 C-7.6875 2.4025 -7.6875 1.7425 -7.6875 1.0625 C-4.80538698 0.10179566 -2.98899956 -0.04331883 0 0 Z " fill="#D4F546" transform="translate(164.6875,225.9375)"/>
<path d="M0 0 C3.29934607 3.86896412 5.75154549 7.84986405 8.125 12.3125 C8.47175781 12.93833984 8.81851563 13.56417969 9.17578125 14.20898438 C12.25885158 19.96759275 14 25.38309044 14 32 C11.36 32 8.72 32 6 32 C6 31.67 6 31.34 6 31 C7.98 30.67 9.96 30.34 12 30 C11.5504955 28.68445015 11.09010284 27.37261642 10.625 26.0625 C10.36976563 25.33160156 10.11453125 24.60070312 9.8515625 23.84765625 C9.14728587 21.81317884 9.14728587 21.81317884 7 21 C6.375 18.9375 6.375 18.9375 6 17 C3.48916886 18.25541557 3.12874554 19.50063488 2 22 C-0.64465038 18.8745041 -1.84414715 15.91211733 -3 12 C-2.34 12 -1.68 12 -1 12 C-0.67 10.68 -0.34 9.36 0 8 C0.66 8 1.32 8 2 8 C1.67 7.4225 1.34 6.845 1 6.25 C0 4 0 4 0 0 Z " fill="#D1F930" transform="translate(218,77)"/>
<path d="M0 0 C-3.75 1.125 -3.75 1.125 -6 0 C-6 -0.66 -6 -1.32 -6 -2 C-7.051875 -2.103125 -8.10375 -2.20625 -9.1875 -2.3125 C-12.94839407 -2.99069401 -14.83333802 -4.00000296 -18 -6 C-20.69254991 -6.70670728 -20.69254991 -6.70670728 -23 -7 C-23 -7.66 -23 -8.32 -23 -9 C-23.95712891 -8.98259766 -23.95712891 -8.98259766 -24.93359375 -8.96484375 C-25.75988281 -8.95582031 -26.58617187 -8.94679688 -27.4375 -8.9375 C-28.67306641 -8.92009766 -28.67306641 -8.92009766 -29.93359375 -8.90234375 C-32 -9 -32 -9 -33 -10 C-34.82906235 -10.20837419 -36.66388134 -10.36749659 -38.5 -10.5 C-43.88888889 -10.88888889 -43.88888889 -10.88888889 -45 -12 C-46.51469448 -12.23192865 -48.03754562 -12.41215238 -49.5625 -12.5625 C-50.38878906 -12.64628906 -51.21507812 -12.73007812 -52.06640625 -12.81640625 C-52.70449219 -12.87699219 -53.34257812 -12.93757813 -54 -13 C-54.33 -12.01 -54.66 -11.02 -55 -10 C-61.93 -10.33 -68.86 -10.66 -76 -11 C-76 -11.66 -76 -12.32 -76 -13 C-75.20335938 -12.98839844 -74.40671875 -12.97679687 -73.5859375 -12.96484375 C-71.99652344 -12.95130859 -71.99652344 -12.95130859 -70.375 -12.9375 C-68.80878906 -12.92009766 -68.80878906 -12.92009766 -67.2109375 -12.90234375 C-41.92638636 -13.67133861 -22.54710111 -12.22475638 0 0 Z " fill="#E0F94F" transform="translate(190,50)"/>
<path d="M0 0 C1.175625 0.391875 2.35125 0.78375 3.5625 1.1875 C4.38621094 1.44917969 5.20992188 1.71085938 6.05859375 1.98046875 C9 3 9 3 12.41015625 4.48828125 C19.66640774 7.52931909 24.63566904 8.65695989 32.1875 5.875 C34.4671707 4.93788297 36.73963405 3.98276781 39 3 C40.32340104 2.62919198 41.65322801 2.27403301 43 2 C43 2.99 43 3.98 43 5 C42.01 5.33 41.02 5.66 40 6 C38.77479736 9.00847418 38.77479736 9.00847418 38 12 C37.01 11.67 36.02 11.34 35 11 C35 10.01 35 9.02 35 8 C34.30003906 8.32226562 33.60007813 8.64453125 32.87890625 8.9765625 C23.54820817 12.29358136 13.80430048 9.68302035 5 6 C4.24847656 5.70867187 3.49695313 5.41734375 2.72265625 5.1171875 C1 4 1 4 0.25 1.875 C0.1675 1.25625 0.085 0.6375 0 0 Z " fill="#D1F72B" transform="translate(96,211)"/>
<path d="M0 0 C2.04119788 1.61594832 4.04072937 3.2856382 6 5 C6 5.66 6 6.32 6 7 C6.66 7 7.32 7 8 7 C8 7.66 8 8.32 8 9 C7.67 9.33 7.34 9.66 7 10 C8.63412443 11.70840281 9.86906094 12.93453047 12 14 C12.99 14 13.98 14 15 14 C15.12375 14.61875 15.2475 15.2375 15.375 15.875 C15.87197356 18.19120832 15.87197356 18.19120832 18 20 C17.34 20.66 16.68 21.32 16 22 C13.525 21.01 13.525 21.01 11 20 C11 19.34 11 18.68 11 18 C8.525 17.01 8.525 17.01 6 16 C6 15.34 6 14.68 6 14 C4.68 13.67 3.36 13.34 2 13 C2 11.68 2 10.36 2 9 C1.34 9 0.68 9 0 9 C-1.125 2.25 -1.125 2.25 0 0 Z " fill="#C8FB0A" transform="translate(27,187)"/>
<path d="M0 0 C1.16015625 0.19916016 1.16015625 0.19916016 2.34375 0.40234375 C8.21975787 1.39864707 14.07932027 2.31684465 20 3 C18.68 2.01 17.36 1.02 16 0 C19.375 0.25 19.375 0.25 23 1 C24.4375 3.0625 24.4375 3.0625 25 5 C22.69 5.66 20.38 6.32 18 7 C17.67 6.34 17.34 5.68 17 5 C15.02 5.33 13.04 5.66 11 6 C12.32 7.65 13.64 9.3 15 11 C9.03654233 12.0006709 4.71271093 12.0662997 -1 10 C-1 9.67 -1 9.34 -1 9 C1.64 8.67 4.28 8.34 7 8 C7.33 6.68 7.66 5.36 8 4 C7.05125 3.71125 6.1025 3.4225 5.125 3.125 C2 2 2 2 0 0 Z " fill="#D0F929" transform="translate(75,218)"/>
<path d="M0 0 C0.33 0 0.66 0 1 0 C1.6875 2.8125 1.6875 2.8125 2 6 C0.75 7.5 0.75 7.5 -1 9 C-3.66632513 13.51850519 -4.64339492 17.72347304 -5.1875 22.875 C-5.26935547 23.56335938 -5.35121094 24.25171875 -5.43554688 24.9609375 C-5.63370738 26.63947357 -5.81827787 28.31960481 -6 30 C-6.66 30 -7.32 30 -8 30 C-8.33 36.27 -8.66 42.54 -9 49 C-9.66 49 -10.32 49 -11 49 C-11.75131789 31.19098338 -8.12980236 15.92874067 0 0 Z " fill="#D6F740" transform="translate(14,88)"/>
<path d="M0 0 C0.66 0.33 1.32 0.66 2 1 C1.38125 2.8253125 1.38125 2.8253125 0.75 4.6875 C-3.17793664 16.19529195 -3.17793664 16.19529195 -6 28 C-6.66 28 -7.32 28 -8 28 C-7.98839844 28.62648438 -7.97679687 29.25296875 -7.96484375 29.8984375 C-7.95130859 31.12433594 -7.95130859 31.12433594 -7.9375 32.375 C-7.92589844 33.18710938 -7.91429687 33.99921875 -7.90234375 34.8359375 C-8 37 -8 37 -9 39 C-9.66 39 -10.32 39 -11 39 C-10.76603516 37.19402344 -10.76603516 37.19402344 -10.52734375 35.3515625 C-10.33040865 33.7760817 -10.13381156 32.20055862 -9.9375 30.625 C-9.83373047 29.8309375 -9.72996094 29.036875 -9.62304688 28.21875 C-8.92038106 23.99830258 -8.92038106 23.99830258 -10 20 C-9.5625 17.875 -9.5625 17.875 -9 16 C-8.01 16 -7.02 16 -6 16 C-6 14.68 -6 13.36 -6 12 C-5.34 11.67 -4.68 11.34 -4 11 C-3.34227572 7.97065509 -3.34227572 7.97065509 -3 5 C-2.34 5 -1.68 5 -1 5 C-0.67 3.35 -0.34 1.7 0 0 Z " fill="#CCF824" transform="translate(59,91)"/>
<path d="M0 0 C0.66 0.99 1.32 1.98 2 3 C1.67 3.99 1.34 4.98 1 6 C1.99 6.33 2.98 6.66 4 7 C5.03131735 9.60862624 5.43057449 12.24047635 6 15 C1.71 15 -2.58 15 -7 15 C-7 13.68 -7 12.36 -7 11 C-5.68 11 -4.36 11 -3 11 C-3.2784375 9.9171875 -3.2784375 9.9171875 -3.5625 8.8125 C-4.01995307 5.87173027 -3.73516357 3.85896942 -3 1 C-2.34 1.33 -1.68 1.66 -1 2 C-0.67 1.34 -0.34 0.68 0 0 Z " fill="#C7FB09" transform="translate(224,92)"/>
<path d="M0 0 C-0.33 0.99 -0.66 1.98 -1 3 C-1.66 3 -2.32 3 -3 3 C-3 4.32 -3 5.64 -3 7 C-5.1385485 9.1385485 -6.13275314 9.42655063 -9 10 C-9 9.34 -9 8.68 -9 8 C-10.32 9.32 -11.64 10.64 -13 12 C-12.34 13.65 -11.68 15.3 -11 17 C-12.32 17.33 -13.64 17.66 -15 18 C-15 17.01 -15 16.02 -15 15 C-15.66 15 -16.32 15 -17 15 C-17.66 13.68 -18.32 12.36 -19 11 C-18.34 11 -17.68 11 -17 11 C-17 10.34 -17 9.68 -17 9 C-14.75849376 7.3595846 -12.5321169 5.85337913 -10.1875 4.375 C-9.54490234 3.95476563 -8.90230469 3.53453125 -8.24023438 3.1015625 C-3.38145546 0 -3.38145546 0 0 0 Z " fill="#CCFB1B" transform="translate(59,46)"/>
<path d="M0 0 C1.79323253 0.28187936 3.58457126 0.5758281 5.375 0.875 C6.37273438 1.03742188 7.37046875 1.19984375 8.3984375 1.3671875 C11 2 11 2 13 4 C13.66 4.33 14.32 4.66 15 5 C15 5.66 15 6.32 15 7 C15.99 6.67 16.98 6.34 18 6 C18.99 6.33 19.98 6.66 21 7 C20.67 7.99 20.34 8.98 20 10 C17.38614189 11.21357698 16.23361013 11.08176354 13.5 10.125 C12.2625 9.568125 12.2625 9.568125 11 9 C10.2575 8.855625 9.515 8.71125 8.75 8.5625 C8.1725 8.376875 7.595 8.19125 7 8 C6.67 7.01 6.34 6.02 6 5 C4.35 4.67 2.7 4.34 1 4 C0.67 2.68 0.34 1.36 0 0 Z " fill="#C7FC08" transform="translate(47,210)"/>
<path d="M0 0 C0.99 0.33 1.98 0.66 3 1 C2.52691406 1.42667969 2.05382812 1.85335937 1.56640625 2.29296875 C-3.88241863 7.44439189 -7.98966418 13.03654834 -12.1171875 19.2421875 C-14 22 -14 22 -16 24 C-15.33501617 19.61110675 -13.81242323 16.0188515 -12 12 C-11.34 12 -10.68 12 -10 12 C-10.99 10.02 -11.98 8.04 -13 6 C-8.7494534 4.14038586 -4.50066475 3.06795435 0 2 C0 1.34 0 0.68 0 0 Z " fill="#C9FB0F" transform="translate(78,67)"/>
<path d="M0 0 C0.99 0 1.98 0 3 0 C3 0.66 3 1.32 3 2 C3.99 2 4.98 2 6 2 C6.12375 2.61875 6.2475 3.2375 6.375 3.875 C6.87197356 6.19120832 6.87197356 6.19120832 9 8 C9.8125 9.875 9.8125 9.875 10 12 C8.5625 14.25 8.5625 14.25 7 16 C5.68 15.67 4.36 15.34 3 15 C3.226875 14.236875 3.45375 13.47375 3.6875 12.6875 C3.790625 11.800625 3.89375 10.91375 4 10 C3.54625 9.54625 3.0925 9.0925 2.625 8.625 C0.12927434 6.12927434 0.32108505 3.40350153 0 0 Z " fill="#C8FB0D" transform="translate(17,174)"/>
<path d="M0 0 C2.69472697 3.30608573 5.19340455 6.68496783 7.625 10.1875 C11.87575479 16.09043495 16.71697684 21.00927526 22 26 C18.3188986 26 17.28324628 24.72036238 14.6171875 22.359375 C12.81816785 20.78358885 12.81816785 20.78358885 9.8125 19 C6.80313031 16.86000378 5.47618798 15.36242819 4 12 C3.8125 9.1875 3.8125 9.1875 4 7 C1.525 6.01 1.525 6.01 -1 5 C-0.67 3.35 -0.34 1.7 0 0 Z " fill="#D5F63E" transform="translate(61,175)"/>
<path d="M0 0 C4.36745901 0.66173621 8.13291909 1.84335872 12 4 C12.9375 7.1875 12.9375 7.1875 13 10 C8.66905042 10 6.72965139 9.03435531 3 7 C3 6.34 3 5.68 3 5 C1.35 4.67 -0.3 4.34 -2 4 C-2 3.34 -2 2.68 -2 2 C-1.34 2 -0.68 2 0 2 C0 1.34 0 0.68 0 0 Z " fill="#C9FB0A" transform="translate(142,49)"/>
<path d="M0 0 C-3.03525486 2.02350324 -4.19426202 2.32124018 -7.6875 2.625 C-8.49574219 2.69976562 -9.30398437 2.77453125 -10.13671875 2.8515625 C-10.75160156 2.90054688 -11.36648437 2.94953125 -12 3 C-12.33 3.99 -12.66 4.98 -13 6 C-15.0625 6.6875 -15.0625 6.6875 -17 7 C-16.34 7.66 -15.68 8.32 -15 9 C-18.69176436 10.36732013 -20.4635609 9.46632841 -24 8 C-26.70886941 7.83201738 -26.70886941 7.83201738 -29 8 C-25.39506252 5.59670835 -21.77736949 4.3828113 -17.70703125 2.953125 C-15.74688515 2.26297255 -13.80446373 1.52178549 -11.875 0.75 C-7.89623016 -0.28793996 -4.08753017 -0.16350121 0 0 Z " fill="#D2FB25" transform="translate(88,38)"/>
<path d="M0 0 C1.46067199 0.45082469 2.91848032 0.91093537 4.375 1.375 C5.18710938 1.63023437 5.99921875 1.88546875 6.8359375 2.1484375 C9 3 9 3 11 5 C10.67 5.66 10.34 6.32 10 7 C10.99 7.33 11.98 7.66 13 8 C11.22925083 8.02705729 9.45838289 8.04642195 7.6875 8.0625 C6.70136719 8.07410156 5.71523437 8.08570313 4.69921875 8.09765625 C2 8 2 8 -1 7 C-1 6.34 -1 5.68 -1 5 C-2.32 4.34 -3.64 3.68 -5 3 C-4.360625 2.87625 -3.72125 2.7525 -3.0625 2.625 C-2.0415625 2.315625 -2.0415625 2.315625 -1 2 C-0.67 1.34 -0.34 0.68 0 0 Z " fill="#CAFC0B" transform="translate(72,219)"/>
<path d="M0 0 C0 0.66 0 1.32 0 2 C1.65 2.33 3.3 2.66 5 3 C5.33 4.32 5.66 5.64 6 7 C2.77208445 9.1519437 1.71599191 9.20086443 -2 9 C-2.33 8.01 -2.66 7.02 -3 6 C-3.66 6 -4.32 6 -5 6 C-5.33 5.34 -5.66 4.68 -6 4 C-6.99 3.67 -7.98 3.34 -9 3 C-8 1 -8 1 -6.1875 0.375 C-4 0 -4 0 0 0 Z " fill="#C7FB0A" transform="translate(195,55)"/>
<path d="M0 0 C0.33 0.66 0.66 1.32 1 2 C1.94101563 1.95359375 2.88203125 1.9071875 3.8515625 1.859375 C15.29166667 1.52777778 15.29166667 1.52777778 18.8125 3.875 C21 6 21 6 22 8 C21.26394531 7.79503906 20.52789062 7.59007812 19.76953125 7.37890625 C18.79371094 7.10949219 17.81789062 6.84007812 16.8125 6.5625 C15.84957031 6.29566406 14.88664062 6.02882813 13.89453125 5.75390625 C12.93933594 5.50511719 11.98414062 5.25632812 11 5 C10.195625 4.773125 9.39125 4.54625 8.5625 4.3125 C5.16625413 3.89832367 2.49451171 4.60239603 -0.8125 5.4375 C-1.97394531 5.72496094 -3.13539062 6.01242188 -4.33203125 6.30859375 C-5.21246094 6.53675781 -6.09289062 6.76492187 -7 7 C-5.66667905 3.00003714 -3.5042173 2.16217663 0 0 Z " fill="#E0FA47" transform="translate(113,45)"/>
<path d="M0 0 C2.97 0 5.94 0 9 0 C6.22803913 2.20741964 3.52965443 3.77870876 0.3125 5.25 C-4.3836561 7.52840214 -8.26632223 10.33199495 -12.28515625 13.64453125 C-14 15 -14 15 -15 15 C-15 13.02 -15 11.04 -15 9 C-13.02 9 -11.04 9 -9 9 C-9 7.68 -9 6.36 -9 5 C-6.36 4.67 -3.72 4.34 -1 4 C-0.67 2.68 -0.34 1.36 0 0 Z " fill="#D5F82F" transform="translate(97,52)"/>
<path d="M0 0 C6.656827 -0.07588693 13.31354303 -0.12853061 19.97070312 -0.16479492 C22.23669605 -0.17990804 24.5026596 -0.20039913 26.76855469 -0.22631836 C30.02025589 -0.26259062 33.27157136 -0.2797009 36.5234375 -0.29296875 C38.05005508 -0.31619453 38.05005508 -0.31619453 39.60751343 -0.33988953 C40.54833771 -0.34011612 41.48916199 -0.34034271 42.45849609 -0.34057617 C43.28900482 -0.34723801 44.11951355 -0.35389984 44.97518921 -0.36076355 C45.64337677 -0.24171158 46.31156433 -0.12265961 47 0 C49 3 49 3 49 7 C48.01 7 47.02 7 46 7 C46 5.35 46 3.7 46 2 C30.49 2 14.98 2 -1 2 C-0.67 1.34 -0.34 0.68 0 0 Z " fill="#D6EE74" transform="translate(7,157)"/>
<path d="M0 0 C0 1.65 0 3.3 0 5 C-1.32 5 -2.64 5 -4 5 C-4 5.99 -4 6.98 -4 8 C-4.94726954 9.69719127 -5.94228261 11.36935236 -7 13 C-7.33 12.01 -7.66 11.02 -8 10 C-10.64 10 -13.28 10 -16 10 C-12.99006136 7.72504637 -9.94860471 5.50072306 -6.875 3.3125 C-6.00617188 2.68988281 -5.13734375 2.06726563 -4.2421875 1.42578125 C-2 0 -2 0 0 0 Z " fill="#D0F929" transform="translate(155,203)"/>
<path d="M0 0 C2.64 0.33 5.28 0.66 8 1 C8.33 1.99 8.66 2.98 9 4 C10.66072849 4.68132451 12.327767 5.34742127 14 6 C14.99 7.485 14.99 7.485 16 9 C17.32 9 18.64 9 20 9 C20 9.99 20 10.98 20 12 C20.99 12 21.98 12 23 12 C23 12.66 23 13.32 23 14 C14.39530506 11.39679125 5.87773735 6.92733331 0 0 Z " fill="#D6F841" transform="translate(39,209)"/>
<path d="M0 0 C10.28932623 3.10336926 18.30962237 9.68939411 26 17 C24.02 17.99 24.02 17.99 22 19 C22 17.68 22 16.36 22 15 C21.34 15 20.68 15 20 15 C20 14.34 20 13.68 20 13 C18.68 13 17.36 13 16 13 C15.67 12.01 15.34 11.02 15 10 C14.01 9.67 13.02 9.34 12 9 C12 8.34 12 7.68 12 7 C11.4225 6.87625 10.845 6.7525 10.25 6.625 C7.97664233 5.99351176 6.0746471 5.11141809 4 4 C4 3.34 4 2.68 4 2 C2.68 2 1.36 2 0 2 C0 1.34 0 0.68 0 0 Z " fill="#DAF943" transform="translate(142,46)"/>
<path d="M0 0 C0.99 0.33 1.98 0.66 3 1 C3 1.66 3 2.32 3 3 C3.99 3.33 4.98 3.66 6 4 C6.66 4.66 7.32 5.32 8 6 C8.33 6 8.66 6 9 6 C9.6700834 8.12392506 10.33596797 10.24917524 11 12.375 C11.37125 13.55835937 11.7425 14.74171875 12.125 15.9609375 C13 19 13 19 13 21 C12.01 20.67 11.02 20.34 10 20 C9.28371806 18.43100147 8.58200479 16.85364602 7.95703125 15.24609375 C6.34879897 11.47167105 4.29244468 7.94035421 2.3046875 4.35546875 C1.50881689 2.91861253 0.73457006 1.46914011 0 0 Z " fill="#DBF947" transform="translate(172,83)"/>
<path d="M0 0 C2.97 0 5.94 0 9 0 C8.01 0.33 7.02 0.66 6 1 C6 1.66 6 2.32 6 3 C6.66 3 7.32 3 8 3 C8.33 3.66 8.66 4.32 9 5 C9.928125 5.2475 10.85625 5.495 11.8125 5.75 C15.88054996 7.34531371 17.04012237 9.15863984 19 13 C18.67 13.99 18.34 14.98 18 16 C17.38125 15.34 16.7625 14.68 16.125 14 C12.78022353 10.63600068 9.0380612 7.78353109 5.3046875 4.8671875 C3 3 3 3 0 0 Z " fill="#D7F944" transform="translate(184,58)"/>
<path d="M0 0 C15.63511481 -0.17265771 15.63511481 -0.17265771 21.375 0.5625 C24.82568861 1.31680657 24.82568861 1.31680657 27 0 C27 0.99 27 1.98 27 3 C17.94361322 3.15178302 9.02417777 2.69037426 0 2 C0 1.34 0 0.68 0 0 Z " fill="#D7F63F" transform="translate(194,99)"/>
<path d="M0 0 C0.99 0.33 1.98 0.66 3 1 C2.67 3.64 2.34 6.28 2 9 C1.67 9 1.34 9 1 9 C0.505 6.525 0.505 6.525 0 4 C-1.0194873 3.98018066 -2.03897461 3.96036133 -3.08935547 3.93994141 C-6.86532648 3.86397192 -10.64090773 3.77524191 -14.41650391 3.68261719 C-16.0518424 3.64429148 -17.68726624 3.60944493 -19.32275391 3.578125 C-21.6712091 3.53255158 -24.01907495 3.47454633 -26.3671875 3.4140625 C-27.10057343 3.40251129 -27.83395935 3.39096008 -28.58956909 3.37905884 C-33.77225659 3.22774341 -33.77225659 3.22774341 -36 1 C-24.12 1.33 -12.24 1.66 0 2 C0 1.34 0 0.68 0 0 Z " fill="#CDFB15" transform="translate(228,157)"/>
<path d="M0 0 C4.22043229 1.55801005 6.53136168 4.71879909 9.25 8.125 C9.93835938 8.96998047 9.93835938 8.96998047 10.640625 9.83203125 C11.76674953 11.21622599 12.88424385 12.60743411 14 14 C13.01 14.33 12.02 14.66 11 15 C10.60167969 14.50628906 10.20335937 14.01257813 9.79296875 13.50390625 C8.99826172 12.54291016 8.99826172 12.54291016 8.1875 11.5625 C7.66542969 10.92441406 7.14335937 10.28632812 6.60546875 9.62890625 C4.99165589 7.7451725 4.99165589 7.7451725 2 7 C0.8125 3.4375 0.8125 3.4375 0 0 Z " fill="#D0F82C" transform="translate(204,62)"/>
<path d="M0 0 C1.32 0 2.64 0 4 0 C3.52723188 5.05786842 2.0138679 7.87083861 -1.0625 11.875 C-1.79597656 12.84179688 -2.52945313 13.80859375 -3.28515625 14.8046875 C-3.85105469 15.52914062 -4.41695312 16.25359375 -5 17 C-5.33 15.68 -5.66 14.36 -6 13 C-5.34 12.67 -4.68 12.34 -4 12 C-3.34444881 9.47266765 -3.34444881 9.47266765 -3 7 C-2.01 7 -1.02 7 0 7 C-0.185625 6.030625 -0.37125 5.06125 -0.5625 4.0625 C-0.706875 3.051875 -0.85125 2.04125 -1 1 C-0.67 0.67 -0.34 0.34 0 0 Z " fill="#CFF82A" transform="translate(219,180)"/>
<path d="M0 0 C0.66 0.33 1.32 0.66 2 1 C2 1.66 2 2.32 2 3 C1.01 3.495 1.01 3.495 0 4 C-0.12375 4.61875 -0.2475 5.2375 -0.375 5.875 C-1.22069593 8.75036617 -2.43165829 9.53237617 -5 11 C-6.32 11 -7.64 11 -9 11 C-9.33 12.32 -9.66 13.64 -10 15 C-11.32 14.67 -12.64 14.34 -14 14 C-13.49210938 13.57589844 -12.98421875 13.15179688 -12.4609375 12.71484375 C-7.83373646 8.77219118 -3.84408054 4.70899866 0 0 Z " fill="#DDFB4B" transform="translate(169,188)"/>
<path d="M0 0 C0.33 0.99 0.66 1.98 1 3 C-3.625 7 -3.625 7 -7 7 C-7.33 8.32 -7.66 9.64 -8 11 C-8.99 11 -9.98 11 -11 11 C-11.33 11.99 -11.66 12.98 -12 14 C-12.99 14.33 -13.98 14.66 -15 15 C-13.387672 10.96918 -10.53765404 8.24055863 -7.5 5.25 C-7.00113281 4.74339844 -6.50226562 4.23679687 -5.98828125 3.71484375 C-2.25341139 0 -2.25341139 0 0 0 Z " fill="#D5F841" transform="translate(40,58)"/>
<path d="M0 0 C4.67213115 1.47540984 4.67213115 1.47540984 6.25 4 C6.4975 4.66 6.745 5.32 7 6 C7.33 6.66 7.66 7.32 8 8 C7.34 8 6.68 8 6 8 C6 9.65 6 11.3 6 13 C5.01 12.67 4.02 12.34 3 12 C2.87625 11.21625 2.7525 10.4325 2.625 9.625 C2.20882007 6.85942178 2.20882007 6.85942178 0 5 C-0.125 2.375 -0.125 2.375 0 0 Z " fill="#C6FB07" transform="translate(212,77)"/>
<path d="M0 0 C0.66 0.33 1.32 0.66 2 1 C2.625 4.0625 2.625 4.0625 3 7 C2.2575 7.226875 1.515 7.45375 0.75 7.6875 C-2.51139591 9.24407532 -3.92894975 11.08518854 -6 14 C-6.66 13.67 -7.32 13.34 -8 13 C-5.36 8.71 -2.72 4.42 0 0 Z " fill="#D5F837" transform="translate(178,174)"/>
<path d="M0 0 C0.66 0.33 1.32 0.66 2 1 C0 7 -2 13 -4 19 C-5.4606285 16.35261084 -6 15.10551666 -6 12 C-5.34 11.67 -4.68 11.34 -4 11 C-3.34227572 7.97065509 -3.34227572 7.97065509 -3 5 C-2.34 5 -1.68 5 -1 5 C-0.67 3.35 -0.34 1.7 0 0 Z " fill="#D2F63C" transform="translate(59,91)"/>
<path d="M0 0 C2.64 0.33 5.28 0.66 8 1 C7.2884375 1.680625 7.2884375 1.680625 6.5625 2.375 C4.90972192 3.93258204 4.90972192 3.93258204 4 6 C8.62 6 13.24 6 18 6 C18 6.33 18 6.66 18 7 C15.75135275 7.22245975 13.50097377 7.42746557 11.25 7.625 C9.37054688 7.79902344 9.37054688 7.79902344 7.453125 7.9765625 C4.16413097 7.99888599 2.68979224 7.77961002 0 6 C0 4.02 0 2.04 0 0 Z " fill="#C8F319" transform="translate(213,101)"/>
<path d="M0 0 C0 3.14557032 -0.55127242 4.66578072 -1.8125 7.5 C-2.14894531 8.2734375 -2.48539063 9.046875 -2.83203125 9.84375 C-4.00742623 12.01370996 -5.09526595 13.44021778 -7 15 C-7.66 15 -8.32 15 -9 15 C-7.68262072 11.41061876 -6.09204262 8.40505503 -3.9375 5.25 C-3.41027344 4.47140625 -2.88304687 3.6928125 -2.33984375 2.890625 C-1 1 -1 1 0 0 Z " fill="#DAFA3A" transform="translate(24,73)"/>
<path d="M0 0 C1.32 1.32 2.64 2.64 4 4 C3.01 5.32 2.02 6.64 1 8 C1.474375 8.556875 1.94875 9.11375 2.4375 9.6875 C4.12943372 12.19156191 4.4460417 14.07193469 5 17 C5.66 17.33 6.32 17.66 7 18 C6.01 18 5.02 18 4 18 C1.81673892 13.72886302 -0.31326082 9.49797113 -2 5 C-1.01 4.67 -0.02 4.34 1 4 C0.67 2.68 0.34 1.36 0 0 Z " fill="#CEFA28" transform="translate(200,58)"/>
<path d="M0 0 C3.25281528 -0.48792229 5.34713084 -0.40014561 8.1796875 1.3359375 C10.1667909 2.84217602 12.1029114 4.38217825 14 6 C13.01 6.495 13.01 6.495 12 7 C11.01 6.67 10.02 6.34 9 6 C9 5.34 9 4.68 9 4 C7.68 4 6.36 4 5 4 C4.67 4.66 4.34 5.32 4 6 C2.04783565 4.04783565 1.15173355 2.46800047 0 0 Z " fill="#CCF916" transform="translate(186,51)"/>
<path d="M0 0 C1.0828125 -0.00257812 2.165625 -0.00515625 3.28125 -0.0078125 C6.43390353 0.12227272 9.40298066 0.5373126 12.5 1.125 C12.5 1.455 12.5 1.785 12.5 2.125 C4.06758584 3.48020942 -4.03665785 2.79999048 -12.5 2.125 C-12.5 1.795 -12.5 1.465 -12.5 1.125 C-8.28130139 0.32446382 -4.29231426 -0.0102198 0 0 Z " fill="#E9FA47" transform="translate(100.5,35.875)"/>
<path d="M0 0 C-1.86967605 0.98929461 -3.74601378 1.96600469 -5.625 2.9375 C-7.19121094 3.75541016 -7.19121094 3.75541016 -8.7890625 4.58984375 C-11.92416918 5.96669717 -14.61454632 6.59842216 -18 7 C-16.6875 5.5 -16.6875 5.5 -15 4 C-14.01 4 -13.02 4 -12 4 C-12 3.34 -12 2.68 -12 2 C-11.05125 1.690625 -10.1025 1.38125 -9.125 1.0625 C-3.1875 -0.95625 -3.1875 -0.95625 0 0 Z " fill="#DAFA4D" transform="translate(187,219)"/>
<path d="M0 0 C2.81158409 2.49824489 4.44837831 5.278476 6.25 8.5625 C6.79140625 9.53316406 7.3328125 10.50382813 7.890625 11.50390625 C8.25671875 12.32761719 8.6228125 13.15132812 9 14 C8.67 14.66 8.34 15.32 8 16 C7.01 15.34 6.02 14.68 5 14 C5 12.68 5 11.36 5 10 C4.01 10 3.02 10 2 10 C0.68373308 6.38026598 0 3.90432869 0 0 Z " fill="#CFF437" transform="translate(18,166)"/>
<path d="M0 0 C0.99 0.33 1.98 0.66 3 1 C3.04254356 2.99954746 3.04080783 5.00041636 3 7 C2.67 7.33 2.34 7.66 2 8 C1.63239269 10.32817964 1.29758419 12.6618385 1 15 C0.34 15 -0.32 15 -1 15 C-2.19126781 11.42619658 -1.7349445 9.49116698 -1.0625 5.8125 C-0.86785156 4.72582031 -0.67320312 3.63914063 -0.47265625 2.51953125 C-0.31667969 1.68808594 -0.16070312 0.85664063 0 0 Z " fill="#D4F738" transform="translate(188,138)"/>
<path d="M0 0 C9.57 0 19.14 0 29 0 C29 1.32 29 2.64 29 4 C28.19127441 3.51781006 28.19127441 3.51781006 27.36621094 3.02587891 C24.50462968 1.78523049 22.25497256 1.68127467 19.140625 1.5859375 C17.46806641 1.52792969 17.46806641 1.52792969 15.76171875 1.46875 C14.60285156 1.4378125 13.44398438 1.406875 12.25 1.375 C11.07566406 1.33632812 9.90132812 1.29765625 8.69140625 1.2578125 C5.79442732 1.1636018 2.89745374 1.07798398 0 1 C0 0.67 0 0.34 0 0 Z " fill="#D1F21A" transform="translate(168,129)"/>
<path d="M0 0 C1.98 0 3.96 0 6 0 C6.66 1.98 7.32 3.96 8 6 C8.33 6 8.66 6 9 6 C9 7.98 9 9.96 9 12 C5.0963126 8.53005564 2.63411025 4.44775994 0 0 Z " fill="#D5F93D" transform="translate(206,77)"/>
<path d="M0 0 C0.99 0.33 1.98 0.66 3 1 C-0.63 4.63 -4.26 8.26 -8 12 C-8.66 11.67 -9.32 11.34 -10 11 C-9.67 10.01 -9.34 9.02 -9 8 C-8.01 8 -7.02 8 -6 8 C-6 6.68 -6 5.36 -6 4 C-3.5625 2.3125 -3.5625 2.3125 -1 1 C-0.67 0.67 -0.34 0.34 0 0 Z " fill="#D9FA41" transform="translate(210,197)"/>
<path d="M0 0 C1.875 0.625 1.875 0.625 4 2 C4.66666667 4 5.33333333 6 6 8 C8.00136244 9.42055068 8.00136244 9.42055068 10 10 C9.34 11.32 8.68 12.64 8 14 C5.50447597 11.72402354 3.93377014 9.39278822 2.3125 6.4375 C1.87550781 5.65246094 1.43851563 4.86742187 0.98828125 4.05859375 C0 2 0 2 0 0 Z " fill="#D5F83A" transform="translate(12,174)"/>
<path d="M0 0 C1.32 0 2.64 0 4 0 C2.38325319 3.42946293 0.42402323 6.56263052 -1.625 9.75 C-2.57246094 11.22726563 -2.57246094 11.22726563 -3.5390625 12.734375 C-4.02117188 13.48203125 -4.50328125 14.2296875 -5 15 C-6.21386936 11.35839192 -5.6674695 10.66834531 -4.0625 7.3125 C-3.68222656 6.50425781 -3.30195312 5.69601563 -2.91015625 4.86328125 C-2.60980469 4.24839844 -2.30945313 3.63351563 -2 3 C-1.34 3 -0.68 3 0 3 C0 2.01 0 1.02 0 0 Z " fill="#D4F732" transform="translate(68,76)"/>
<path d="M0 0 C0.33 0.66 0.66 1.32 1 2 C2.670625 2.433125 2.670625 2.433125 4.375 2.875 C8.13182228 4.04091036 9.11494586 4.67343387 11 8 C9.68 8 8.36 8 7 8 C7 7.34 7 6.68 7 6 C5.35 6.33 3.7 6.66 2 7 C1.34 5.68 0.68 4.36 0 3 C-0.66 3 -1.32 3 -2 3 C-2 2.34 -2 1.68 -2 1 C-1.34 0.67 -0.68 0.34 0 0 Z " fill="#CDF827" transform="translate(35,195)"/>
<path d="M0 0 C1.32 0.33 2.64 0.66 4 1 C4.33 2.32 4.66 3.64 5 5 C1.77208445 7.1519437 0.71599191 7.20086443 -3 7 C-3.33 6.01 -3.66 5.02 -4 4 C-4.66 4 -5.32 4 -6 4 C-5.67 3.34 -5.34 2.68 -5 2 C-4.01 2.99 -3.02 3.98 -2 5 C-1.34 4.67 -0.68 4.34 0 4 C0 2.68 0 1.36 0 0 Z " fill="#CCFB16" transform="translate(196,57)"/>
<path d="M0 0 C0.33 0.99 0.66 1.98 1 3 C0.21625 2.938125 -0.5675 2.87625 -1.375 2.8125 C-2.674375 2.9053125 -2.674375 2.9053125 -4 3 C-4.99 4.485 -4.99 4.485 -6 6 C-7.5 4.6875 -7.5 4.6875 -9 3 C-9 2.01 -9 1.02 -9 0 C-5.52176885 -1.15941038 -3.54104422 -0.70820884 0 0 Z " fill="#C6FB05" transform="translate(18,161)"/>
<path d="M0 0 C2.97 0.495 2.97 0.495 6 1 C6.33 2.32 6.66 3.64 7 5 C5.02 5.99 5.02 5.99 3 7 C1.5 5.75 1.5 5.75 0 4 C0 2.68 0 1.36 0 0 Z " fill="#C8FC06" transform="translate(172,76)"/>
<path d="M0 0 C5 1.66666667 10 3.33333333 15 5 C11.87819599 5.96661363 9.47916205 5.98988909 6.25 5.5625 C5.05117187 5.40974609 5.05117187 5.40974609 3.828125 5.25390625 C3.22484375 5.17011719 2.6215625 5.08632812 2 5 C1.34 3.35 0.68 1.7 0 0 Z " fill="#D7F741" transform="translate(60,212)"/>
<path d="M0 0 C0.99 0 1.98 0 3 0 C2.67 0.99 2.34 1.98 2 3 C1.34 3 0.68 3 0 3 C0 4.32 0 5.64 0 7 C-2.1385485 9.1385485 -3.13275314 9.42655063 -6 10 C-6 9.01 -6 8.02 -6 7 C-5.34 7 -4.68 7 -4 7 C-4 6.34 -4 5.68 -4 5 C-3.34 4.67 -2.68 4.34 -2 4 C-0.86649466 1.98330173 -0.86649466 1.98330173 0 0 Z " fill="#D0FB14" transform="translate(56,46)"/>
<path d="M0 0 C3.10742423 1.46818668 5.90471739 3.20025 8.75 5.125 C9.94882813 5.93324219 9.94882813 5.93324219 11.171875 6.7578125 C11.77515625 7.16773438 12.3784375 7.57765625 13 8 C12.34 8.66 11.68 9.32 11 10 C11 9.34 11 8.68 11 8 C10.2575 7.87625 9.515 7.7525 8.75 7.625 C6.09176812 7.02085639 4.23920161 6.54427697 2 5 C0.75 2.375 0.75 2.375 0 0 Z " fill="#D7F649" transform="translate(83,202)"/>
<path d="M0 0 C1 2 1 2 0.25 5.0625 C-0.1625 6.031875 -0.575 7.00125 -1 8 C-1.99 8.33 -2.98 8.66 -4 9 C-4.66 9.99 -5.32 10.98 -6 12 C-6.6875 9.6875 -6.6875 9.6875 -7 7 C-5.6875 5.1875 -5.6875 5.1875 -4 4 C-3.34 4 -2.68 4 -2 4 C-1.34 2.68 -0.68 1.36 0 0 Z " fill="#CBF913" transform="translate(63,84)"/>
<path d="M0 0 C4.88049925 3.9419417 9.0580583 8.11950075 13 13 C6.94656021 10.98218674 3.72115342 7.05013679 0 2 C0 1.34 0 0.68 0 0 Z " fill="#D3F44E" transform="translate(70,189)"/>
<path d="M0 0 C0.33 0.66 0.66 1.32 1 2 C3.02463255 2.65213292 3.02463255 2.65213292 5 3 C3.68 3 2.36 3 1 3 C1 3.66 1 4.32 1 5 C-1.64 5.66 -4.28 6.32 -7 7 C-5.66667905 3.00003714 -3.5042173 2.16217663 0 0 Z " fill="#D1F72E" transform="translate(113,45)"/>
<path d="M0 0 C-3.06910021 2.0460668 -4.80688201 2.50913306 -8.375 3.125 C-9.77878906 3.37636719 -9.77878906 3.37636719 -11.2109375 3.6328125 C-13.84737023 3.97990588 -16.34496388 4.06758274 -19 4 C-12.59559154 0.55147237 -7.16846871 -0.28673875 0 0 Z " fill="#DFFB49" transform="translate(88,38)"/>
<path d="M0 0 C2.31 0.66 4.62 1.32 7 2 C7 1.34 7 0.68 7 0 C7.99 0.33 8.98 0.66 10 1 C8.87926138 1.83905565 7.75325453 2.67107831 6.625 3.5 C5.99851563 3.9640625 5.37203125 4.428125 4.7265625 4.90625 C3 6 3 6 1 6 C0.67 4.02 0.34 2.04 0 0 Z " fill="#D2FB38" transform="translate(186,212)"/>
<path d="M0 0 C0.66 0 1.32 0 2 0 C2.45375 0.969375 2.9075 1.93875 3.375 2.9375 C4.65786221 6.07079582 4.65786221 6.07079582 7 7 C6.34 8.32 5.68 9.64 5 11 C2.03947516 7.63576723 1.07710178 4.30840713 0 0 Z " fill="#D4F832" transform="translate(47,166)"/>
<path d="M0 0 C1.32 0 2.64 0 4 0 C3.74322411 1.75211782 3.46897047 3.50167936 3.1875 5.25 C3.03667969 6.22453125 2.88585937 7.1990625 2.73046875 8.203125 C1.96781736 11.12322338 0.96225899 12.74205815 -1 15 C-1 13.02 -1 11.04 -1 9 C-0.34 9 0.32 9 1 9 C1.33 6.36 1.66 3.72 2 1 C1.34 0.67 0.68 0.34 0 0 Z " fill="#D6F457" transform="translate(229,157)"/>
<path d="M0 0 C1.01586535 3.04759605 1.00433442 4.45093253 0.625 7.5625 C0.48964844 8.74005859 0.48964844 8.74005859 0.3515625 9.94140625 C0 12 0 12 -1 14 C-1.66 14 -2.32 14 -3 14 C-2.69249629 11.85344499 -2.3788634 9.70776715 -2.0625 7.5625 C-1.88847656 6.36753906 -1.71445312 5.17257813 -1.53515625 3.94140625 C-1 1 -1 1 0 0 Z " fill="#C8F317" transform="translate(51,116)"/>
<path d="M0 0 C3.375 0.625 3.375 0.625 7 2 C8.3125 5.0625 8.3125 5.0625 9 8 C9.66 8.33 10.32 8.66 11 9 C8 9 8 9 5.95703125 7.28515625 C5.24933594 6.55167969 4.54164063 5.81820312 3.8125 5.0625 C3.09707031 4.33160156 2.38164062 3.60070312 1.64453125 2.84765625 C0 1 0 1 0 0 Z " fill="#D9FB47" transform="translate(156,65)"/>
<path d="M0 0 C3.375 0.6875 3.375 0.6875 7 2 C8.4375 4.625 8.4375 4.625 9 7 C5.2089881 5.55049545 1.6125362 3.84827434 -2 2 C-1.34 1.34 -0.68 0.68 0 0 Z " fill="#D9F941" transform="translate(138,52)"/>
<path d="M0 0 C-0.33 0.99 -0.66 1.98 -1 3 C-1.66 3 -2.32 3 -3 3 C-3 3.66 -3 4.32 -3 5 C-6.47307692 7.10865385 -6.47307692 7.10865385 -9.140625 6.55859375 C-10.06101563 6.28208984 -10.06101563 6.28208984 -11 6 C-9.54550599 4.9944239 -8.08627557 3.99569565 -6.625 3 C-5.40683594 2.1646875 -5.40683594 2.1646875 -4.1640625 1.3125 C-2 0 -2 0 0 0 Z " fill="#DAF943" transform="translate(55,48)"/>
<path d="M0 0 C2.97 0 5.94 0 9 0 C5.8745041 2.64465038 2.91211733 3.84414715 -1 5 C-0.67 3.35 -0.34 1.7 0 0 Z " fill="#D9F83F" transform="translate(97,52)"/>
<path d="M0 0 C0.66 0.33 1.32 0.66 2 1 C2 1.66 2 2.32 2 3 C1.01 3.495 1.01 3.495 0 4 C-0.12375 4.61875 -0.2475 5.2375 -0.375 5.875 C-1.19821471 8.67393003 -2.60184644 9.45280415 -5 11 C-5.66 10.67 -6.32 10.34 -7 10 C-6.566875 9.62875 -6.13375 9.2575 -5.6875 8.875 C-3.54009037 6.4889893 -2.37932714 3.88404765 -1 1 C-0.67 0.67 -0.34 0.34 0 0 Z " fill="#D3FA2D" transform="translate(169,188)"/>
<path d="M0 0 C3.63 0 7.26 0 11 0 C11 0.33 11 0.66 11 1 C10.21625 1.144375 9.4325 1.28875 8.625 1.4375 C6.03578982 1.87798925 6.03578982 1.87798925 4 3 C3.34 2.67 2.68 2.34 2 2 C2 3.65 2 5.3 2 7 C0 4 0 4 0 0 Z " fill="#D6F927" transform="translate(7,159)"/>
<path d="M0 0 C0.66 0 1.32 0 2 0 C2 1.65 2 3.3 2 5 C-2.455 5.495 -2.455 5.495 -7 6 C-6.21625 5.38125 -5.4325 4.7625 -4.625 4.125 C-2.03162353 2.10141339 -2.03162353 2.10141339 0 0 Z " fill="#DBFA39" transform="translate(153,203)"/>
<path d="M0 0 C2 2 2 2 2.25 4.3125 C1.98092002 7.20510975 1.20264159 9.36922151 0 12 C-0.33 12 -0.66 12 -1 12 C-1.02698189 10.37509046 -1.04638757 8.75005367 -1.0625 7.125 C-1.07410156 6.22007813 -1.08570313 5.31515625 -1.09765625 4.3828125 C-1 2 -1 2 0 0 Z " fill="#CCFB0E" transform="translate(6,118)"/>
<path d="M0 0 C3.87020669 1.11805971 6.28781421 2.0295108 9 5 C9.99 5.33 10.98 5.66 12 6 C12 6.66 12 7.32 12 8 C7.44328408 6.48109469 3.68276708 4.04597738 0 1 C0 0.67 0 0.34 0 0 Z " fill="#D3F547" transform="translate(79,210)"/>
<path d="M0 0 C2.28459758 2.28459758 2.97129748 4.12537344 4.125 7.125 C4.47820312 8.03507812 4.83140625 8.94515625 5.1953125 9.8828125 C5.46085938 10.58148438 5.72640625 11.28015625 6 12 C5.01 12.495 5.01 12.495 4 13 C3.32404685 11.58774074 2.65959941 10.16997095 2 8.75 C1.62875 7.96109375 1.2575 7.1721875 0.875 6.359375 C0 4 0 4 0 0 Z " fill="#DBF944" transform="translate(186,87)"/>
<path d="M0 0 C0.99 0.33 1.98 0.66 3 1 C0.36 3.64 -2.28 6.28 -5 9 C-5.66 8.34 -6.32 7.68 -7 7 C-6.34 7 -5.68 7 -5 7 C-4.731875 6.360625 -4.46375 5.72125 -4.1875 5.0625 C-3 3 -3 3 0 2 C0 1.34 0 0.68 0 0 Z " fill="#D6F845" transform="translate(78,67)"/>
<path d="M0 0 C1.45823212 -0.0270043 2.91660675 -0.04639787 4.375 -0.0625 C5.18710938 -0.07410156 5.99921875 -0.08570313 6.8359375 -0.09765625 C9 0 9 0 11 1 C11 1.99 11 2.98 11 4 C7.37 3.01 3.74 2.02 0 1 C0 0.67 0 0.34 0 0 Z " fill="#DCF949" transform="translate(163,49)"/>
<path d="M0 0 C1.74965358 -0.05429959 3.49979787 -0.09292823 5.25 -0.125 C6.22453125 -0.14820313 7.1990625 -0.17140625 8.203125 -0.1953125 C11.0196498 0.00137219 12.60949036 0.55431084 15 2 C15 2.33 15 2.66 15 3 C9.99109914 2.38487182 4.99367864 1.7282448 0 1 C0 0.67 0 0.34 0 0 Z " fill="#DDF553" transform="translate(148,46)"/>
<path d="M0 0 C-0.33 0.99 -0.66 1.98 -1 3 C-3.97 3 -6.94 3 -10 3 C-10 2.34 -10 1.68 -10 1 C-6.56484998 0.37542727 -3.50935186 0 0 0 Z " fill="#D7F641" transform="translate(127,218)"/>
<path d="M0 0 C0.66 0 1.32 0 2 0 C0.68775452 3.93673644 -0.91910327 6.22719294 -4 9 C-4.33 7.35 -4.66 5.7 -5 4 C-3.68 4 -2.36 4 -1 4 C-0.67 2.68 -0.34 1.36 0 0 Z " fill="#C9FA0F" transform="translate(160,199)"/>
<path d="M0 0 C3.3138009 0.57134498 4.78626651 1.49751866 7 4 C7.556875 4.556875 8.11375 5.11375 8.6875 5.6875 C9.3371875 6.3371875 9.3371875 6.3371875 10 7 C9.67 7.66 9.34 8.32 9 9 C7.49704815 7.69088122 5.99770689 6.37761608 4.5 5.0625 C3.6646875 4.33160156 2.829375 3.60070312 1.96875 2.84765625 C1.3190625 2.23792969 0.669375 1.62820312 0 1 C0 0.67 0 0.34 0 0 Z " fill="#D4F152" transform="translate(29,200)"/>
<path d="M0 0 C1.32 0.33 2.64 0.66 4 1 C-0.14285714 7.42857143 -0.14285714 7.42857143 -3 10 C-3 8.68 -3 7.36 -3 6 C-2.34 5.67 -1.68 5.34 -1 5 C-0.34444881 2.47266765 -0.34444881 2.47266765 0 0 Z " fill="#D9FA3F" transform="translate(216,187)"/>
<path d="M0 0 C0.33 0 0.66 0 1 0 C1.33 3.3 1.66 6.6 2 10 C3.65 10.33 5.3 10.66 7 11 C7 11.33 7 11.66 7 12 C4.36 12 1.72 12 -1 12 C-0.67 8.04 -0.34 4.08 0 0 Z " fill="#D9FC36" transform="translate(51,119)"/>
<path d="M0 0 C1.98 1.65 3.96 3.3 6 5 C3.33333333 5.66666667 0.66666667 6.33333333 -2 7 C-1.67 6.21625 -1.34 5.4325 -1 4.625 C0.11866511 2.15667503 0.11866511 2.15667503 0 0 Z " fill="#D0F934" transform="translate(168,64)"/>
<path d="M0 0 C2.22825644 2.22825644 2.69239369 3.65761628 3.625 6.625 C4.01558594 7.85089844 4.01558594 7.85089844 4.4140625 9.1015625 C4.60742188 9.72804687 4.80078125 10.35453125 5 11 C3.046875 10.18359375 3.046875 10.18359375 1 9 C0.20851401 5.9000132 0 3.19474755 0 0 Z " fill="#D5F740" transform="translate(56,164)"/>
<path d="M0 0 C1.32 0.33 2.64 0.66 4 1 C4.33 2.98 4.66 4.96 5 7 C4.01 7 3.02 7 2 7 C2 5.35 2 3.7 2 2 C1.34 2 0.68 2 0 2 C0 1.34 0 0.68 0 0 Z " fill="#D9F747" transform="translate(51,157)"/>
<path d="M0 0 C0.99 0.33 1.98 0.66 3 1 C0.375 5.875 0.375 5.875 -3 7 C-2.38722388 4.03824877 -1.74627478 2.61941217 0 0 Z " fill="#CEF916" transform="translate(26,72)"/>
<path d="M0 0 C0.66 0 1.32 0 2 0 C2.33 0.99 2.66 1.98 3 3 C1.35 4.32 -0.3 5.64 -2 7 C-2.66 6.67 -3.32 6.34 -4 6 C-1.125 1.125 -1.125 1.125 0 0 Z " fill="#D4F92C" transform="translate(38,58)"/>
<path d="M0 0 C4.35535069 1.16142685 6.64619703 2.07699505 9 6 C6.69 5.34 4.38 4.68 2 4 C2 3.34 2 2.68 2 2 C1.01 1.67 0.02 1.34 -1 1 C-0.67 0.67 -0.34 0.34 0 0 Z " fill="#D3F634" transform="translate(126,47)"/>
<path d="M0 0 C1.9375 0.625 1.9375 0.625 4 2 C4.75 5.125 4.75 5.125 5 8 C4.01 7.67 3.02 7.34 2 7 C0.81480735 4.56723614 0 2.71982714 0 0 Z " fill="#CFF825" transform="translate(66,185)"/>
<path d="M0 0 C0.99 0.33 1.98 0.66 3 1 C2.67 3.64 2.34 6.28 2 9 C1.67 9 1.34 9 1 9 C0.9175 8.21625 0.835 7.4325 0.75 6.625 C0.27193661 3.85250896 0.27193661 3.85250896 -2.0625 2.6875 C-2.701875 2.460625 -3.34125 2.23375 -4 2 C-2.68 2 -1.36 2 0 2 C0 1.34 0 0.68 0 0 Z " fill="#D0F61E" transform="translate(228,157)"/>
<path d="M0 0 C0.66 0 1.32 0 2 0 C1.67 3.3 1.34 6.6 1 10 C0.34 10 -0.32 10 -1 10 C-2.15837626 5.94568308 -1.83691257 3.78187881 0 0 Z " fill="#CAFB0F" transform="translate(13,95)"/>
<path d="M0 0 C6.52307692 0.61538462 6.52307692 0.61538462 8.9375 2.5625 C9.288125 3.036875 9.63875 3.51125 10 4 C9.01 4.495 9.01 4.495 8 5 C6.0546875 4.22265625 6.0546875 4.22265625 3.875 3.0625 C3.15054688 2.68222656 2.42609375 2.30195312 1.6796875 1.91015625 C1.12539062 1.60980469 0.57109375 1.30945312 0 1 C0 0.67 0 0.34 0 0 Z " fill="#DCFA52" transform="translate(174,53)"/>
<path d="M0 0 C0.66 0.33 1.32 0.66 2 1 C2 2.32 2 3.64 2 5 C-0.31 4.67 -2.62 4.34 -5 4 C-4.01 3.01 -3.02 2.02 -2 1 C-1.34 1.33 -0.68 1.66 0 2 C0 1.34 0 0.68 0 0 Z " fill="#CCFC15" transform="translate(47,161)"/>
<path d="M0 0 C4.43458973 1.3937282 6.87378374 3.60582235 10 7 C7.5625 6.625 7.5625 6.625 5 6 C4.67 5.34 4.34 4.68 4 4 C1.98330173 2.86649466 1.98330173 2.86649466 0 2 C0 1.34 0 0.68 0 0 Z " fill="#DEF958" transform="translate(190,51)"/>
<path d="M0 0 C0.33 0 0.66 0 1 0 C1.33 2.31 1.66 4.62 2 7 C1.01 7 0.02 7 -1 7 C-1.625 4.625 -1.625 4.625 -2 2 C-1.34 1.34 -0.68 0.68 0 0 Z " fill="#D3FB31" transform="translate(180,89)"/>
<path d="M0 0 C0 4.24645065 -1.81750806 6.38524772 -4 10 C-5 7 -5 7 -3.6875 3.875 C-2 1 -2 1 0 0 Z " fill="#D6F746" transform="translate(67,81)"/>
<path d="M0 0 C2.97 0.33 5.94 0.66 9 1 C9 1.66 9 2.32 9 3 C6.1875 3.1875 6.1875 3.1875 3 3 C2.01 2.01 1.02 1.02 0 0 Z " fill="#D5F747" transform="translate(155,38)"/>
<path d="M0 0 C2.32472205 2.85306797 3.7508258 5.54074837 5 9 C3.68 8.34 2.36 7.68 1 7 C1 5.68 1 4.36 1 3 C0.34 2.67 -0.32 2.34 -1 2 C-0.67 1.34 -0.34 0.68 0 0 Z " fill="#DBF84C" transform="translate(22,173)"/>
<path d="M0 0 C3.0916909 2.52956528 3.90931332 5.22454612 5 9 C2.5 6.75 2.5 6.75 0 4 C0 2.68 0 1.36 0 0 Z " fill="#DFFA51" transform="translate(221,82)"/>
<path d="M0 0 C4.875 4.75 4.875 4.75 6 7 C4.125 6.875 4.125 6.875 2 6 C0.75 2.9375 0.75 2.9375 0 0 Z " fill="#D5F845" transform="translate(212,70)"/>
</svg>
